<svg version="1.1" viewBox="0.0 0.0 758.9711286089239 305.2782152230971" fill="none" stroke="none" stroke-linecap="square" stroke-miterlimit="10" xmlns:xlink="http://www.w3.org/1999/xlink" xmlns="http://www.w3.org/2000/svg"><clipPath id="p.0"><path d="m0 0l758.9711 0l0 305.27823l-758.9711 0l0 -305.27823z" clip-rule="nonzero"/></clipPath><g clip-path="url(#p.0)"><path fill="#000000" fill-opacity="0.0" d="m0 0l758.9711 0l0 305.27823l-758.9711 0z" fill-rule="evenodd"/><path fill="#000000" fill-opacity="0.0" d="m298.5092 258.69028l-193.85828 0l0 -115.77951" fill-rule="evenodd"/><path stroke="#b7b7b7" stroke-width="3.0" stroke-linejoin="round" stroke-linecap="butt" d="m298.5092 258.69028l-193.85828 0l0 -97.77951" fill-rule="evenodd"/><path fill="#b7b7b7" stroke="#b7b7b7" stroke-width="3.0" stroke-linecap="butt" d="m109.60612 160.91077l-4.9552 -13.614304l-4.9551926 13.614304z" fill-rule="evenodd"/><path fill="#000000" fill-opacity="0.0" d="m459.9895 123.69029l111.84253 0" fill-rule="evenodd"/><path stroke="#b7b7b7" stroke-width="3.0" stroke-linejoin="round" stroke-linecap="butt" d="m459.9895 123.69029l93.84253 0" fill-rule="evenodd"/><path fill="#b7b7b7" stroke="#b7b7b7" stroke-width="3.0" stroke-linecap="butt" d="m553.83203 128.6455l13.614258 -4.9552l-13.614258 -4.9552z" fill-rule="evenodd"/><path fill="#000000" fill-opacity="0.0" d="m462.86353 85.561676l102.17322 0l0 34.393707l-102.17322 0z" fill-rule="evenodd"/><path fill="#000000" d="m494.2778 107.36168l0 -9.46875l2.921875 0q1.25 0 2.234375 0.5625q0.984375 0.5625 1.53125 1.59375q0.5625 1.03125 0.5625 2.359375l0 0.4375q0 1.3125 -0.546875 2.34375q-0.546875 1.03125 -1.53125 1.609375q-0.984375 0.5625 -2.234375 0.5625l-2.9375 0zm1.953125 -7.890625l0 6.328125l0.9375 0q1.15625 0 1.75 -0.75q0.609375 -0.75 0.625 -2.140625l0 -0.5q0 -1.453125 -0.609375 -2.1875q-0.59375 -0.75 -1.734375 -0.75l-0.96875 0zm9.833862 8.015625q-1.546875 0 -2.53125 -0.9375q-0.96875 -0.953125 -0.96875 -2.53125l0 -0.1875q0 -1.0625 0.40625 -1.890625q0.40625 -0.84375 1.15625 -1.296875q0.765625 -0.453125 1.71875 -0.453125q1.453125 0 2.28125 0.921875q0.828125 0.90625 0.828125 2.578125l0 0.765625l-4.484375 0q0.09375 0.6875 0.546875 1.109375q0.46875 0.40625 1.171875 0.40625q1.078125 0 1.6875 -0.78125l0.921875 1.03125q-0.421875 0.59375 -1.140625 0.9375q-0.71875 0.328125 -1.59375 0.328125zm-0.21875 -5.78125q-0.5625 0 -0.90625 0.390625q-0.34375 0.375 -0.453125 1.078125l2.625 0l0 -0.15625q-0.015625 -0.625 -0.34375 -0.96875q-0.328125 -0.34375 -0.921875 -0.34375zm10.516754 2.203125q0 1.625 -0.75 2.609375q-0.734375 0.96875 -1.984375 0.96875q-1.0625 0 -1.7187805 -0.734375l0 3.3125l-1.890625 0l0 -9.75l1.75 0l0.0625 0.6875q0.6875305 -0.8125 1.7812805 -0.8125q1.296875 0 2.015625 0.96875q0.734375 0.953125 0.734375 2.65625l0 0.09375zm-1.875 -0.140625q0 -0.984375 -0.359375 -1.515625q-0.34375 -0.53125 -1.015625 -0.53125q-0.875 0 -1.2031555 0.671875l0 2.890625q0.34378052 0.6875 1.2187805 0.6875q1.359375 0 1.359375 -2.203125zm5.019165 3.59375l-1.890625 0l0 -10.0l1.890625 0l0 10.0zm1.2525635 -3.578125q0 -1.0625 0.40625 -1.875q0.40625 -0.828125 1.15625 -1.265625q0.765625 -0.453125 1.765625 -0.453125q1.4375 0 2.328125 0.875q0.90625 0.875 1.015625 2.359375l0 0.484375q0 1.625 -0.90625 2.609375q-0.890625 0.96875 -2.421875 0.96875q-1.515625 0 -2.4375 -0.96875q-0.90625 -0.984375 -0.90625 -2.65625l0 -0.078125zm1.890625 0.125q0 1.0 0.375 1.53125q0.375 0.53125 1.078125 0.53125q0.6875 0 1.0625 -0.515625q0.390625 -0.53125 0.390625 -1.671875q0 -0.984375 -0.390625 -1.53125q-0.375 -0.546875 -1.078125 -0.546875q-0.6875 0 -1.0625 0.546875q-0.375 0.53125 -0.375 1.65625zm8.469727 0.796875l1.3125 -4.390625l2.015625 0l-2.828125 8.140625l-0.15625 0.375q-0.640625 1.375 -2.09375 1.375q-0.40625 0 -0.828125 -0.125l0 -1.421875l0.28125 0q0.546875 0 0.796875 -0.171875q0.265625 -0.15625 0.421875 -0.53125l0.21875 -0.578125l-2.46875 -7.0625l2.03125 0l1.296875 4.390625z" fill-rule="nonzero"/><path fill="#000000" fill-opacity="0.0" d="m185.39108 123.69029l113.13385 0" fill-rule="evenodd"/><path stroke="#b7b7b7" stroke-width="3.0" stroke-linejoin="round" stroke-linecap="butt" d="m185.39108 123.69029l95.13385 0" fill-rule="evenodd"/><path fill="#b7b7b7" stroke="#b7b7b7" stroke-width="3.0" stroke-linecap="butt" d="m280.52493 128.6455l13.614288 -4.9552l-13.614288 -4.9552z" fill-rule="evenodd"/><path fill="#000000" fill-opacity="0.0" d="m190.86351 85.561676l102.17323 0l0 34.393707l-102.17323 0z" fill-rule="evenodd"/><path fill="#000000" d="m227.52315 107.36168l0 -9.46875l3.328125 0q1.71875 0 2.609375 0.65625q0.890625 0.65625 0.890625 1.9375q0 0.6875 -0.359375 1.21875q-0.359375 0.53125 -1.0 0.78125q0.734375 0.1875 1.15625 0.75q0.421875 0.546875 0.421875 1.34375q0 1.359375 -0.875 2.0625q-0.875 0.703125 -2.484375 0.71875l-3.6875 0zm1.953125 -4.125l0 2.5625l1.671875 0q0.6875 0 1.078125 -0.328125q0.390625 -0.328125 0.390625 -0.921875q0 -1.296875 -1.34375 -1.3125l-1.796875 0zm0 -1.375l1.453125 0q1.46875 -0.03125 1.46875 -1.1875q0 -0.640625 -0.375 -0.921875q-0.375 -0.28125 -1.171875 -0.28125l-1.375 0l0 2.390625zm10.646423 4.78125q-0.6875 0.84375 -1.921875 0.84375q-1.140625 0 -1.734375 -0.640625q-0.59375 -0.65625 -0.609375 -1.90625l0 -4.625l1.890625 0l0 4.546875q0 1.109375 1.0 1.109375q0.953125 0 1.3125 -0.671875l0 -4.984375l1.890625 0l0 7.046875l-1.78125 0l-0.046875 -0.71875zm5.223648 0.71875l-1.890625 0l0 -7.046875l1.890625 0l0 7.046875zm-2.0 -8.859375q0 -0.421875 0.28125 -0.6875q0.296875 -0.28125 0.78125 -0.28125q0.484375 0 0.765625 0.28125q0.28125 0.265625 0.28125 0.6875q0 0.421875 -0.296875 0.703125q-0.28125 0.265625 -0.765625 0.265625q-0.46875 0 -0.765625 -0.265625q-0.28125 -0.28125 -0.28125 -0.703125zm5.533783 8.859375l-1.890625 0l0 -10.0l1.890625 0l0 10.0zm1.252533 -3.578125q0 -1.640625 0.734375 -2.609375q0.75 -0.984375 2.03125 -0.984375q1.03125 0 1.703125 0.765625l0 -3.59375l1.890625 0l0 10.0l-1.703125 0l-0.09375 -0.75q-0.703125 0.875 -1.8125 0.875q-1.234375 0 -2.0 -0.96875q-0.75 -0.984375 -0.75 -2.734375zm1.890625 0.140625q0 0.984375 0.34375 1.515625q0.34375 0.53125 1.0 0.53125q0.875 0 1.234375 -0.734375l0 -2.78125q-0.359375 -0.734375 -1.21875 -0.734375q-1.359375 0 -1.359375 2.203125z" fill-rule="nonzero"/><path fill="#000000" fill-opacity="0.0" d="m573.1076 104.461945l161.48035 0l0 38.456696l-161.48035 0z" fill-rule="evenodd"/><path stroke="#0c58d3" stroke-width="2.0" stroke-linejoin="round" stroke-linecap="butt" d="m573.1076 104.461945l161.48035 0l0 38.456696l-161.48035 0z" fill-rule="evenodd"/><path fill="#0c58d3" d="m592.2732 126.00591q0 -0.5625 -0.390625 -0.84375q-0.390625 -0.296875 -1.40625 -0.625q-1.015625 -0.328125 -1.609375 -0.65625q-1.625 -0.875 -1.625 -2.34375q0 -0.765625 0.4375 -1.359375q0.4375 -0.609375 1.25 -0.953125q0.8125 -0.34375 1.8125 -0.34375q1.015625 0 1.8125 0.375q0.796875 0.359375 1.234375 1.03125q0.4375 0.671875 0.4375 1.53125l-1.953125 0q0 -0.65625 -0.40625 -1.015625q-0.40625 -0.359375 -1.15625 -0.359375q-0.71875 0 -1.125 0.3125q-0.390625 0.296875 -0.390625 0.78125q0 0.46875 0.46875 0.78125q0.46875 0.3125 1.375 0.578125q1.671875 0.5 2.421875 1.25q0.765625 0.734375 0.765625 1.84375q0 1.234375 -0.9375 1.9375q-0.921875 0.6875076 -2.5 0.6875076q-1.09375 0 -2.0 -0.390625q-0.890625 -0.40625763 -1.359375 -1.0937576q-0.46875 -0.703125 -0.46875 -1.625l1.953125 0q0 1.578125 1.875 1.578125q0.703125 0 1.09375 -0.28125q0.390625 -0.296875 0.390625 -0.796875zm5.3965454 -6.28125l0 1.71875l1.203125 0l0 1.390625l-1.203125 0l0 3.515625q0 0.390625 0.15625 0.5625q0.15625 0.15625 0.578125 0.15625q0.3125 0 0.546875 -0.046875l0 1.4375076q-0.546875 0.15625 -1.140625 0.15625q-1.984375 0 -2.015625 -2.0000076l0 -3.78125l-1.03125 0l0 -1.390625l1.03125 0l0 -1.71875l1.875 0zm6.331543 8.765633q-0.125 -0.25 -0.1875 -0.6250076q-0.671875 0.7500076 -1.765625 0.7500076q-1.046875 0 -1.734375 -0.59375q-0.671875 -0.5937576 -0.671875 -1.5156326q0 -1.109375 0.828125 -1.703125q0.84375 -0.609375 2.40625 -0.609375l0.859375 0l0 -0.40625q0 -0.484375 -0.25 -0.78125q-0.25 -0.296875 -0.78125 -0.296875q-0.484375 0 -0.75 0.234375q-0.265625 0.21875 -0.265625 0.625l-1.890625 0q0 -0.609375 0.375 -1.125q0.390625 -0.53125 1.078125 -0.828125q0.6875 -0.296875 1.546875 -0.296875q1.296875 0 2.0625 0.65625q0.765625 0.65625 0.765625 1.84375l0 3.046875q0.015625 1.0 0.28125 1.5156326l0 0.109375l-1.90625 0zm-1.546875 -1.3125076q0.40625 0 0.75 -0.171875q0.359375 -0.1875 0.53125 -0.5l0 -1.21875l-0.703125 0q-1.40625 0 -1.5 0.984375l0 0.109375q0 0.34375 0.234375 0.578125q0.25 0.21875 0.6875 0.21875zm6.86438 -7.453125l0 1.71875l1.203125 0l0 1.390625l-1.203125 0l0 3.515625q0 0.390625 0.15625 0.5625q0.15625 0.15625 0.578125 0.15625q0.3125 0 0.546875 -0.046875l0 1.4375076q-0.546875 0.15625 -1.140625 0.15625q-1.984375 0 -2.015625 -2.0000076l0 -3.78125l-1.03125 0l0 -1.390625l1.03125 0l0 -1.71875l1.875 0zm4.237854 8.765633l-1.890625 0l0 -7.0468826l1.890625 0l0 7.0468826zm-2.0 -8.859383q0 -0.421875 0.28125 -0.6875q0.296875 -0.28125 0.78125 -0.28125q0.484375 0 0.765625 0.28125q0.28125 0.265625 0.28125 0.6875q0 0.421875 -0.296875 0.703125q-0.28125 0.265625 -0.765625 0.265625q-0.46875 0 -0.765625 -0.265625q-0.28125 -0.28125 -0.28125 -0.703125zm6.4868774 7.46875q0.515625 0 0.84375 -0.28125q0.328125 -0.28125 0.328125 -0.765625l1.765625 0q0 0.71875 -0.390625 1.3125q-0.375 0.59375 -1.046875 0.9218826q-0.671875 0.328125 -1.46875 0.328125q-1.515625 0 -2.390625 -0.9531326q-0.875 -0.96875 -0.875 -2.65625l0 -0.125q0 -1.625 0.859375 -2.59375q0.875 -0.96875 2.390625 -0.96875q1.3125 0 2.109375 0.75q0.8125 0.75 0.8125 2.0l-1.765625 0q0 -0.546875 -0.328125 -0.890625q-0.328125 -0.34375 -0.859375 -0.34375q-0.65625 0 -1.0 0.484375q-0.328125 0.484375 -0.328125 1.546875l0 0.203125q0 1.078125 0.328125 1.5625q0.328125 0.46875 1.015625 0.46875zm14.83197 -1.34375l1.28125 -6.734375l1.953125 0l-2.109375 9.468758l-1.96875 0l-1.53125 -6.3437576l-1.546875 6.3437576l-1.96875 0l-2.09375 -9.468758l1.9375 0l1.28125 6.71875l1.5625 -6.71875l1.65625 0l1.546875 6.734375zm7.2037354 2.8593826q-1.546875 0 -2.53125 -0.9375076q-0.96875 -0.953125 -0.96875 -2.53125l0 -0.1875q0 -1.0625 0.40625 -1.890625q0.40625 -0.84375 1.15625 -1.296875q0.765625 -0.453125 1.71875 -0.453125q1.453125 0 2.28125 0.921875q0.828125 0.90625 0.828125 2.578125l0 0.765625l-4.484375 0q0.09375 0.6875 0.546875 1.109375q0.46875 0.40625 1.171875 0.40625q1.078125 0 1.6875 -0.78125l0.921875 1.03125q-0.421875 0.59375 -1.140625 0.9375076q-0.71875 0.328125 -1.59375 0.328125zm-0.21875 -5.7812576q-0.5625 0 -0.90625 0.390625q-0.34375 0.375 -0.453125 1.078125l2.625 0l0 -0.15625q-0.015625 -0.625 -0.34375 -0.96875q-0.328125 -0.34375 -0.921875 -0.34375zm10.516724 2.203125q0 1.6875 -0.71875 2.640625q-0.71875 0.9375076 -2.015625 0.9375076q-1.140625 0 -1.828125 -0.8750076l-0.078125 0.7500076l-1.703125 0l0 -10.000008l1.890625 0l0 3.59375q0.640625 -0.765625 1.703125 -0.765625q1.296875 0 2.015625 0.953125q0.734375 0.9375 0.734375 2.65625l0 0.109375zm-1.875 -0.140625q0 -1.0625 -0.34375 -1.546875q-0.328125 -0.5 -1.0 -0.5q-0.90625 0 -1.234375 0.734375l0 2.78125q0.34375 0.734375 1.25 0.734375q0.90625 0 1.1875 -0.890625q0.140625 -0.4375 0.140625 -1.3125zm6.847351 1.640625q0 -0.34375 -0.34375 -0.53125q-0.328125 -0.203125 -1.09375 -0.359375q-2.515625 -0.53125 -2.515625 -2.140625q0 -0.9375 0.78125 -1.5625q0.78125 -0.625 2.03125 -0.625q1.34375 0 2.140625 0.640625q0.8125 0.625 0.8125 1.625l-1.875 0q0 -0.390625 -0.265625 -0.65625q-0.265625 -0.265625 -0.8125 -0.265625q-0.46875 0 -0.734375 0.21875q-0.265625 0.203125 -0.265625 0.546875q0 0.3125 0.296875 0.5q0.296875 0.1875 1.0 0.328125q0.703125 0.140625 1.1875 0.3125q1.484375 0.546875 1.484375 1.890625q0 0.96875 -0.828125 1.5625076q-0.8125 0.59375 -2.125 0.59375q-0.890625 0 -1.578125 -0.3125q-0.6875 -0.31250763 -1.078125 -0.8593826q-0.390625 -0.546875 -0.390625 -1.1875l1.78125 0q0.03125 0.5 0.375 0.765625q0.34375 0.265625 0.921875 0.265625q0.546875 0 0.8125 -0.203125q0.28125 -0.203125 0.28125 -0.546875zm5.024658 1.9531326l-1.890625 0l0 -7.0468826l1.890625 0l0 7.0468826zm-2.0 -8.859383q0 -0.421875 0.28125 -0.6875q0.296875 -0.28125 0.78125 -0.28125q0.484375 0 0.765625 0.28125q0.28125 0.265625 0.28125 0.6875q0 0.421875 -0.296875 0.703125q-0.28125 0.265625 -0.765625 0.265625q-0.46875 0 -0.765625 -0.265625q-0.28125 -0.28125 -0.28125 -0.703125zm5.7994385 0.09375l0 1.71875l1.203125 0l0 1.390625l-1.203125 0l0 3.515625q0 0.390625 0.15625 0.5625q0.15625 0.15625 0.578125 0.15625q0.3125 0 0.546875 -0.046875l0 1.4375076q-0.546875 0.15625 -1.140625 0.15625q-1.984375 0 -2.015625 -2.0000076l0 -3.78125l-1.03125 0l0 -1.390625l1.03125 0l0 -1.71875l1.875 0zm5.503418 8.890633q-1.546875 0 -2.53125 -0.9375076q-0.96875 -0.953125 -0.96875 -2.53125l0 -0.1875q0 -1.0625 0.40625 -1.890625q0.40625 -0.84375 1.15625 -1.296875q0.765625 -0.453125 1.71875 -0.453125q1.453125 0 2.28125 0.921875q0.828125 0.90625 0.828125 2.578125l0 0.765625l-4.484375 0q0.09375 0.6875 0.546875 1.109375q0.46875 0.40625 1.171875 0.40625q1.078125 0 1.6875 -0.78125l0.921875 1.03125q-0.421875 0.59375 -1.140625 0.9375076q-0.71875 0.328125 -1.59375 0.328125zm-0.21875 -5.7812576q-0.5625 0 -0.90625 0.390625q-0.34375 0.375 -0.453125 1.078125l2.625 0l0 -0.15625q-0.015625 -0.625 -0.34375 -0.96875q-0.328125 -0.34375 -0.921875 -0.34375zm9.335754 -0.625q0.75 -0.890625 1.875 -0.890625q2.296875 0 2.328125 2.65625l0 4.5156326l-1.890625 0l0 -4.4531326q0 -0.609375 -0.265625 -0.890625q-0.25 -0.296875 -0.859375 -0.296875q-0.828125 0 -1.1875 0.640625l0 5.0000076l-1.890625 0l0 -10.000008l1.890625 0l0 3.71875zm5.317383 2.703125q0 -1.0625 0.40625 -1.875q0.40625 -0.828125 1.15625 -1.265625q0.765625 -0.453125 1.765625 -0.453125q1.4375 0 2.328125 0.875q0.90625 0.875 1.015625 2.359375l0 0.484375q0 1.625 -0.90625 2.609375q-0.890625 0.9687576 -2.421875 0.9687576q-1.515625 0 -2.4375 -0.9687576q-0.90625 -0.984375 -0.90625 -2.65625l0 -0.078125zm1.890625 0.125q0 1.0 0.375 1.53125q0.375 0.53125 1.078125 0.53125q0.6875 0 1.0625 -0.515625q0.390625 -0.53125 0.390625 -1.671875q0 -0.984375 -0.390625 -1.53125q-0.375 -0.546875 -1.078125 -0.546875q-0.6875 0 -1.0625 0.546875q-0.375 0.53125 -0.375 1.65625zm9.754883 1.5q0 -0.34375 -0.34375 -0.53125q-0.328125 -0.203125 -1.09375 -0.359375q-2.515625 -0.53125 -2.515625 -2.140625q0 -0.9375 0.78125 -1.5625q0.78125 -0.625 2.03125 -0.625q1.34375 0 2.140625 0.640625q0.8125 0.625 0.8125 1.625l-1.875 0q0 -0.390625 -0.265625 -0.65625q-0.265625 -0.265625 -0.8125 -0.265625q-0.46875 0 -0.734375 0.21875q-0.265625 0.203125 -0.265625 0.546875q0 0.3125 0.296875 0.5q0.296875 0.1875 1.0 0.328125q0.703125 0.140625 1.1875 0.3125q1.484375 0.546875 1.484375 1.890625q0 0.96875 -0.828125 1.5625076q-0.8125 0.59375 -2.125 0.59375q-0.890625 0 -1.578125 -0.3125q-0.6875 -0.31250763 -1.078125 -0.8593826q-0.390625 -0.546875 -0.390625 -1.1875l1.78125 0q0.03125 0.5 0.375 0.765625q0.34375 0.265625 0.921875 0.265625q0.546875 0 0.8125 -0.203125q0.28125 -0.203125 0.28125 -0.546875zm5.290283 -6.8125l0 1.71875l1.203125 0l0 1.390625l-1.203125 0l0 3.515625q0 0.390625 0.15625 0.5625q0.15625 0.15625 0.578125 0.15625q0.3125 0 0.546875 -0.046875l0 1.4375076q-0.546875 0.15625 -1.140625 0.15625q-1.984375 0 -2.015625 -2.0000076l0 -3.78125l-1.03125 0l0 -1.390625l1.03125 0l0 -1.71875l1.875 0zm4.237854 8.765633l-1.890625 0l0 -7.0468826l1.890625 0l0 7.0468826zm-2.0 -8.859383q0 -0.421875 0.28125 -0.6875q0.296875 -0.28125 0.78125 -0.28125q0.484375 0 0.765625 0.28125q0.28125 0.265625 0.28125 0.6875q0 0.421875 -0.296875 0.703125q-0.28125 0.265625 -0.765625 0.265625q-0.46875 0 -0.765625 -0.265625q-0.28125 -0.28125 -0.28125 -0.703125zm5.2837524 1.8125l0.0625 0.8125q0.75 -0.9375 2.015625 -0.9375q1.125 0 1.671875 0.65625q0.546875 0.65625 0.5625 1.96875l0 4.5468826l-1.890625 0l0 -4.5000076q0 -0.609375 -0.265625 -0.875q-0.25 -0.265625 -0.859375 -0.265625q-0.78125 0 -1.1875 0.671875l0 4.9687576l-1.875 0l0 -7.0468826l1.765625 0zm5.4645386 3.46875q0 -1.609375 0.765625 -2.59375q0.765625 -1.0 2.078125 -1.0q1.15625 0 1.8125 0.796875l0.078125 -0.671875l1.703125 0l0 6.8125076q0 0.921875 -0.421875 1.609375q-0.421875 0.6875 -1.1875 1.03125q-0.765625 0.359375 -1.78125 0.359375q-0.765625 0 -1.515625 -0.3125q-0.734375 -0.296875 -1.109375 -0.78125l0.84375 -1.15625q0.703125 0.796875 1.703125 0.796875q0.75 0 1.15625 -0.40625q0.421875 -0.40625 0.421875 -1.140625l0 -0.37500763q-0.65625 0.7343826 -1.71875 0.7343826q-1.265625 0 -2.046875 -0.9843826q-0.78125 -1.0 -0.78125 -2.640625l0 -0.078125zm1.875 0.140625q0 0.953125 0.375 1.5q0.390625 0.546875 1.0625 0.546875q0.859375 0 1.234375 -0.640625l0 -2.96875q-0.375 -0.640625 -1.21875 -0.640625q-0.671875 0 -1.0625 0.5625q-0.390625 0.546875 -0.390625 1.640625z" fill-rule="nonzero"/><path fill="#000000" fill-opacity="0.0" d="m298.5092 239.46194l161.48032 0l0 38.456696l-161.48032 0z" fill-rule="evenodd"/><path stroke="#0c58d3" stroke-width="2.0" stroke-linejoin="round" stroke-linecap="butt" d="m298.5092 239.46194l161.48032 0l0 38.456696l-161.48032 0z" fill-rule="evenodd"/><path fill="#0c58d3" d="m355.94788 260.33405q-0.109375 1.53125 -1.125 2.40625q-1.015625 0.875 -2.6875 0.875q-1.8125 0 -2.859375 -1.21875q-1.046875 -1.234375 -1.046875 -3.375l0 -0.578125q0 -1.359375 0.46875 -2.40625q0.484375 -1.046875 1.375 -1.59375q0.90625 -0.5625 2.09375 -0.5625q1.640625 0 2.640625 0.890625q1.0 0.875 1.15625 2.453125l-1.953125 0q-0.0625 -0.90625 -0.515625 -1.3125q-0.4375 -0.421875 -1.328125 -0.421875q-0.984375 0 -1.46875 0.703125q-0.484375 0.6875 -0.5 2.15625l0 0.71875q0 1.53125 0.46875 2.25q0.46875 0.703125 1.46875 0.703125q0.90625 0 1.34375 -0.40625q0.453125 -0.421875 0.515625 -1.28125l1.953125 0zm0.86117554 -0.421875q0 -1.0625 0.40625 -1.875q0.40625 -0.828125 1.15625 -1.265625q0.765625 -0.453125 1.765625 -0.453125q1.4375 0 2.328125 0.875q0.90625 0.875 1.015625 2.359375l0 0.484375q0 1.625 -0.90625 2.609375q-0.890625 0.96875 -2.421875 0.96875q-1.515625 0 -2.4375 -0.96875q-0.90625 -0.984375 -0.90625 -2.65625l0 -0.078125zm1.890625 0.125q0 1.0 0.375 1.53125q0.375 0.53125 1.078125 0.53125q0.6875 0 1.0625 -0.515625q0.390625 -0.53125 0.390625 -1.671875q0 -0.984375 -0.390625 -1.53125q-0.375 -0.546875 -1.078125 -0.546875q-0.6875 0 -1.0625 0.546875q-0.375 0.53125 -0.375 1.65625zm7.6767273 -3.59375l0.0625 0.8125q0.75 -0.9375 2.015625 -0.9375q1.125 0 1.671875 0.65625q0.546875 0.65625 0.5625 1.96875l0 4.546875l-1.890625 0l0 -4.5q0 -0.609375 -0.265625 -0.875q-0.25 -0.265625 -0.859375 -0.265625q-0.78125 0 -1.1875 0.671875l0 4.96875l-1.875 0l0 -7.046875l1.765625 0zm7.9801636 -1.71875l0 1.71875l1.203125 0l0 1.390625l-1.203125 0l0 3.515625q0 0.390625 0.15625 0.5625q0.15625 0.15625 0.578125 0.15625q0.3125 0 0.546875 -0.046875l0 1.4375q-0.546875 0.15625 -1.140625 0.15625q-1.984375 0 -2.015625 -2.0l0 -3.78125l-1.03125 0l0 -1.390625l1.03125 0l0 -1.71875l1.875 0zm5.5034485 8.890625q-1.546875 0 -2.53125 -0.9375q-0.96875 -0.953125 -0.96875 -2.53125l0 -0.1875q0 -1.0625 0.40625 -1.890625q0.40625 -0.84375 1.15625 -1.296875q0.765625 -0.453125 1.71875 -0.453125q1.453125 0 2.28125 0.921875q0.828125 0.90625 0.828125 2.578125l0 0.765625l-4.484375 0q0.09375 0.6875 0.546875 1.109375q0.46875 0.40625 1.171875 0.40625q1.078125 0 1.6875 -0.78125l0.921875 1.03125q-0.421875 0.59375 -1.140625 0.9375q-0.71875 0.328125 -1.59375 0.328125zm-0.21875 -5.78125q-0.5625 0 -0.90625 0.390625q-0.34375 0.375 -0.453125 1.078125l2.625 0l0 -0.15625q-0.015625 -0.625 -0.34375 -0.96875q-0.328125 -0.34375 -0.921875 -0.34375zm5.9073486 -1.390625l0.0625 0.8125q0.75 -0.9375 2.015625 -0.9375q1.125 0 1.671875 0.65625q0.546875 0.65625 0.5625 1.96875l0 4.546875l-1.890625 0l0 -4.5q0 -0.609375 -0.265625 -0.875q-0.25 -0.265625 -0.859375 -0.265625q-0.78125 0 -1.1875 0.671875l0 4.96875l-1.875 0l0 -7.046875l1.765625 0zm7.9801636 -1.71875l0 1.71875l1.203125 0l0 1.390625l-1.203125 0l0 3.515625q0 0.390625 0.15625 0.5625q0.15625 0.15625 0.578125 0.15625q0.3125 0 0.546875 -0.046875l0 1.4375q-0.546875 0.15625 -1.140625 0.15625q-1.984375 0 -2.015625 -2.0l0 -3.78125l-1.03125 0l0 -1.390625l1.03125 0l0 -1.71875l1.875 0zm2.7690735 8.765625l0 -5.65625l-1.046875 0l0 -1.390625l1.046875 0l0 -0.59375q0 -1.1875 0.671875 -1.828125q0.6875 -0.65625 1.90625 -0.65625q0.390625 0 0.96875 0.125l-0.03125 1.453125q-0.234375 -0.0625 -0.5625 -0.0625q-1.0625 0 -1.0625 1.0l0 0.5625l1.390625 0l0 1.390625l-1.390625 0l0 5.65625l-1.890625 0zm8.479919 -0.71875q-0.6875 0.84375 -1.921875 0.84375q-1.140625 0 -1.734375 -0.640625q-0.59375 -0.65625 -0.609375 -1.90625l0 -4.625l1.890625 0l0 4.546875q0 1.109375 1.0 1.109375q0.953125 0 1.3125 -0.671875l0 -4.984375l1.890625 0l0 7.046875l-1.78125 0l-0.046875 -0.71875zm5.223633 0.71875l-1.890625 0l0 -10.0l1.890625 0l0 10.0z" fill-rule="nonzero"/><path fill="#000000" fill-opacity="0.0" d="m298.5092 104.461945l161.48032 0l0 38.456696l-161.48032 0z" fill-rule="evenodd"/><path stroke="#0c58d3" stroke-width="2.0" stroke-linejoin="round" stroke-linecap="butt" d="m298.5092 104.461945l161.48032 0l0 38.456696l-161.48032 0z" fill-rule="evenodd"/><path fill="#0c58d3" d="m360.1919 127.28716q-0.53125 0.640625 -1.5 0.9843826q-0.953125 0.34375 -2.125 0.34375q-1.234375 0 -2.15625 -0.53125q-0.921875 -0.5312576 -1.4375 -1.5468826q-0.5 -1.03125 -0.515625 -2.40625l0 -0.65625q0 -1.421875 0.46875 -2.453125q0.484375 -1.03125 1.390625 -1.578125q0.90625 -0.5625 2.109375 -0.5625q1.6875 0 2.640625 0.8125q0.953125 0.796875 1.125 2.328125l-1.90625 0q-0.125 -0.8125 -0.578125 -1.1875q-0.4375 -0.375 -1.21875 -0.375q-1.0 0 -1.515625 0.75q-0.515625 0.75 -0.53125 2.21875l0 0.609375q0 1.484375 0.5625 2.25q0.578125 0.765625 1.671875 0.765625q1.09375 0 1.5625 -0.46875l0 -1.640625l-1.78125 0l0 -1.4375l3.734375 0l0 3.78125zm5.531616 1.2031326q-0.125 -0.25 -0.1875 -0.6250076q-0.671875 0.7500076 -1.765625 0.7500076q-1.046875 0 -1.734375 -0.59375q-0.671875 -0.5937576 -0.671875 -1.5156326q0 -1.109375 0.828125 -1.703125q0.84375 -0.609375 2.40625 -0.609375l0.859375 0l0 -0.40625q0 -0.484375 -0.25 -0.78125q-0.25 -0.296875 -0.78125 -0.296875q-0.484375 0 -0.75 0.234375q-0.265625 0.21875 -0.265625 0.625l-1.890625 0q0 -0.609375 0.375 -1.125q0.390625 -0.53125 1.078125 -0.828125q0.6875 -0.296875 1.546875 -0.296875q1.296875 0 2.0625 0.65625q0.765625 0.65625 0.765625 1.84375l0 3.046875q0.015625 1.0 0.28125 1.5156326l0 0.109375l-1.90625 0zm-1.546875 -1.3125076q0.40625 0 0.75 -0.171875q0.359375 -0.1875 0.53125 -0.5l0 -1.21875l-0.703125 0q-1.40625 0 -1.5 0.984375l0 0.109375q0 0.34375 0.234375 0.578125q0.25 0.21875 0.6875 0.21875zm6.8644104 -7.453125l0 1.71875l1.203125 0l0 1.390625l-1.203125 0l0 3.515625q0 0.390625 0.15625 0.5625q0.15625 0.15625 0.578125 0.15625q0.3125 0 0.546875 -0.046875l0 1.4375076q-0.546875 0.15625 -1.140625 0.15625q-1.984375 0 -2.015625 -2.0000076l0 -3.78125l-1.03125 0l0 -1.390625l1.03125 0l0 -1.71875l1.875 0zm6.0659485 6.8125q0 -0.34375 -0.34375 -0.53125q-0.328125 -0.203125 -1.09375 -0.359375q-2.515625 -0.53125 -2.515625 -2.140625q0 -0.9375 0.78125 -1.5625q0.78125 -0.625 2.03125 -0.625q1.34375 0 2.140625 0.640625q0.8125 0.625 0.8125 1.625l-1.875 0q0 -0.390625 -0.265625 -0.65625q-0.265625 -0.265625 -0.8125 -0.265625q-0.46875 0 -0.734375 0.21875q-0.265625 0.203125 -0.265625 0.546875q0 0.3125 0.296875 0.5q0.296875 0.1875 1.0 0.328125q0.703125 0.140625 1.1875 0.3125q1.484375 0.546875 1.484375 1.890625q0 0.96875 -0.828125 1.5625076q-0.8125 0.59375 -2.125 0.59375q-0.890625 0 -1.578125 -0.3125q-0.6875 -0.31250763 -1.078125 -0.8593826q-0.390625 -0.546875 -0.390625 -1.1875l1.78125 0q0.03125 0.5 0.375 0.765625q0.34375 0.265625 0.921875 0.265625q0.546875 0 0.8125 -0.203125q0.28125 -0.203125 0.28125 -0.546875zm9.384033 -1.5q0 1.6875 -0.71875 2.640625q-0.71875 0.9375076 -2.015625 0.9375076q-1.140625 0 -1.828125 -0.8750076l-0.078125 0.7500076l-1.703125 0l0 -10.000008l1.890625 0l0 3.59375q0.640625 -0.765625 1.703125 -0.765625q1.296875 0 2.015625 0.953125q0.734375 0.9375 0.734375 2.65625l0 0.109375zm-1.875 -0.140625q0 -1.0625 -0.34375 -1.546875q-0.328125 -0.5 -1.0 -0.5q-0.90625 0 -1.234375 0.734375l0 2.78125q0.34375 0.734375 1.25 0.734375q0.90625 0 1.1875 -0.890625q0.140625 -0.4375 0.140625 -1.3125zm5.5882263 0.9375l1.3125 -4.390625l2.015625 0l-2.828125 8.140633l-0.15625 0.375q-0.640625 1.375 -2.09375 1.375q-0.40625 0 -0.828125 -0.125l0 -1.421875l0.28125 0q0.546875 0 0.796875 -0.171875q0.265625 -0.15625 0.421875 -0.53125l0.21875 -0.578125l-2.46875 -7.0625076l2.03125 0l1.296875 4.390625zm3.0716248 1.734375q0 -0.453125 0.296875 -0.734375q0.3125 -0.28125 0.765625 -0.28125q0.46875 0 0.765625 0.28125q0.3125 0.28125 0.3125 0.734375q0 0.43750763 -0.3125 0.7187576q-0.296875 0.28125 -0.765625 0.28125q-0.453125 0 -0.765625 -0.28125q-0.296875 -0.28125 -0.296875 -0.7187576zm5.7784424 -6.125l0 7.4375076q0 1.15625 -0.625 1.796875q-0.609375 0.65625 -1.78125 0.65625q-0.484375 0 -0.9375 -0.109375l0 -1.484375q0.34375 0.046875 0.59375 0.046875q0.859375 0 0.859375 -0.90625l0 -7.4375076l1.890625 0zm-2.046875 -1.8125q0 -0.421875 0.28125 -0.6875q0.296875 -0.28125 0.78125 -0.28125q0.484375 0 0.765625 0.28125q0.28125 0.265625 0.28125 0.6875q0 0.421875 -0.296875 0.703125q-0.28125 0.265625 -0.765625 0.265625q-0.46875 0 -0.765625 -0.265625q-0.28125 -0.28125 -0.28125 -0.703125zm7.3215637 6.90625q0 -0.34375 -0.34375 -0.53125q-0.328125 -0.203125 -1.09375 -0.359375q-2.515625 -0.53125 -2.515625 -2.140625q0 -0.9375 0.78125 -1.5625q0.78125 -0.625 2.03125 -0.625q1.34375 0 2.140625 0.640625q0.8125 0.625 0.8125 1.625l-1.875 0q0 -0.390625 -0.265625 -0.65625q-0.265625 -0.265625 -0.8125 -0.265625q-0.46875 0 -0.734375 0.21875q-0.265625 0.203125 -0.265625 0.546875q0 0.3125 0.296875 0.5q0.296875 0.1875 1.0 0.328125q0.703125 0.140625 1.1875 0.3125q1.484375 0.546875 1.484375 1.890625q0 0.96875 -0.828125 1.5625076q-0.8125 0.59375 -2.125 0.59375q-0.890625 0 -1.578125 -0.3125q-0.6875 -0.31250763 -1.078125 -0.8593826q-0.390625 -0.546875 -0.390625 -1.1875l1.78125 0q0.03125 0.5 0.375 0.765625q0.34375 0.265625 0.921875 0.265625q0.546875 0 0.8125 -0.203125q0.28125 -0.203125 0.28125 -0.546875z" fill-rule="nonzero"/><path fill="#000000" fill-opacity="0.0" d="m23.91076 104.461945l161.48032 0l0 38.456696l-161.48032 0z" fill-rule="evenodd"/><path stroke="#0c58d3" stroke-width="2.0" stroke-linejoin="round" stroke-linecap="butt" d="m23.91076 104.461945l161.48032 0l0 38.456696l-161.48032 0z" fill-rule="evenodd"/><path fill="#0c58d3" d="m43.851727 127.28716q-0.53125 0.640625 -1.5 0.9843826q-0.953125 0.34375 -2.125 0.34375q-1.234375 0 -2.15625 -0.53125q-0.921875 -0.5312576 -1.4375 -1.5468826q-0.5 -1.03125 -0.515625 -2.40625l0 -0.65625q0 -1.421875 0.46875 -2.453125q0.484375 -1.03125 1.390625 -1.578125q0.90625 -0.5625 2.109375 -0.5625q1.6875 0 2.640625 0.8125q0.953125 0.796875 1.125 2.328125l-1.90625 0q-0.125 -0.8125 -0.578125 -1.1875q-0.4375 -0.375 -1.21875 -0.375q-1.0 0 -1.515625 0.75q-0.515625 0.75 -0.53125 2.21875l0 0.609375q0 1.484375 0.5625 2.25q0.578125 0.765625 1.671875 0.765625q1.09375 0 1.5625 -0.46875l0 -1.640625l-1.78125 0l0 -1.4375l3.734375 0l0 3.78125zm3.4378662 1.2031326l-1.890625 0l0 -7.0468826l1.890625 0l0 7.0468826zm-2.0 -8.859383q0 -0.421875 0.28125 -0.6875q0.296875 -0.28125 0.78125 -0.28125q0.484375 0 0.765625 0.28125q0.28125 0.265625 0.28125 0.6875q0 0.421875 -0.296875 0.703125q-0.28125 0.265625 -0.765625 0.265625q-0.46875 0 -0.765625 -0.265625q-0.28125 -0.28125 -0.28125 -0.703125zm5.799408 0.09375l0 1.71875l1.203125 0l0 1.390625l-1.203125 0l0 3.515625q0 0.390625 0.15625 0.5625q0.15625 0.15625 0.578125 0.15625q0.3125 0 0.546875 -0.046875l0 1.4375076q-0.546875 0.15625 -1.140625 0.15625q-1.984375 0 -2.015625 -2.0000076l0 -3.78125l-1.03125 0l0 -1.390625l1.03125 0l0 -1.71875l1.875 0zm10.0971985 8.765633l-1.953125 0l0 -4.0625076l-3.8125 0l0 4.0625076l-1.953125 0l0 -9.468758l1.953125 0l0 3.828125l3.8125 0l0 -3.828125l1.953125 0l0 9.468758zm5.791897 -0.7187576q-0.6875 0.8437576 -1.921875 0.8437576q-1.1406212 0 -1.7343712 -0.6406326q-0.59375 -0.65625 -0.609375 -1.90625l0 -4.625l1.8906212 0l0 4.546875q0 1.109375 1.0 1.109375q0.953125 0 1.3125 -0.671875l0 -4.984375l1.890625 0l0 7.0468826l-1.78125 0l-0.046875 -0.7187576zm9.583023 -2.734375q0 1.6875 -0.71875 2.640625q-0.71875 0.9375076 -2.015625 0.9375076q-1.140625 0 -1.828125 -0.8750076l-0.078125 0.7500076l-1.703125 0l0 -10.000008l1.890625 0l0 3.59375q0.640625 -0.765625 1.703125 -0.765625q1.296875 0 2.015625 0.953125q0.734375 0.9375 0.734375 2.65625l0 0.109375zm-1.875 -0.140625q0 -1.0625 -0.34375 -1.546875q-0.328125 -0.5 -1.0 -0.5q-0.90625 0 -1.234375 0.734375l0 2.78125q0.34375 0.734375 1.25 0.734375q0.90625 0 1.1875 -0.890625q0.140625 -0.4375 0.140625 -1.3125zm11.838226 1.640625l-3.4375 0l-0.640625 1.9531326l-2.078125 0l3.53125 -9.468758l1.796875 0l3.546875 9.468758l-2.0625 0l-0.65625 -1.9531326zm-2.90625 -1.578125l2.375 0l-1.1875 -3.546875l-1.1875 3.546875zm9.327225 2.140625q0.515625 0 0.84375 -0.28125q0.328125 -0.28125 0.328125 -0.765625l1.765625 0q0 0.71875 -0.390625 1.3125q-0.375 0.59375 -1.046875 0.9218826q-0.671875 0.328125 -1.46875 0.328125q-1.515625 0 -2.390625 -0.9531326q-0.875 -0.96875 -0.875 -2.65625l0 -0.125q0 -1.625 0.859375 -2.59375q0.875 -0.96875 2.390625 -0.96875q1.3125 0 2.109375 0.75q0.8125 0.75 0.8125 2.0l-1.765625 0q0 -0.546875 -0.328125 -0.890625q-0.328125 -0.34375 -0.859375 -0.34375q-0.65625 0 -1.0 0.484375q-0.328125 0.484375 -0.328125 1.546875l0 0.203125q0 1.078125 0.328125 1.5625q0.328125 0.46875 1.015625 0.46875zm6.262909 -7.375l0 1.71875l1.203125 0l0 1.390625l-1.203125 0l0 3.515625q0 0.390625 0.15625 0.5625q0.15625 0.15625 0.578125 0.15625q0.3125 0 0.546875 -0.046875l0 1.4375076q-0.546875 0.15625 -1.140625 0.15625q-1.984375 0 -2.015625 -2.0000076l0 -3.78125l-1.03125 0l0 -1.390625l1.03125 0l0 -1.71875l1.875 0zm4.2378235 8.765633l-1.890625 0l0 -7.0468826l1.890625 0l0 7.0468826zm-2.0 -8.859383q0 -0.421875 0.28125 -0.6875q0.296875 -0.28125 0.78125 -0.28125q0.484375 0 0.765625 0.28125q0.28125 0.265625 0.28125 0.6875q0 0.421875 -0.296875 0.703125q-0.28125 0.265625 -0.765625 0.265625q-0.46875 0 -0.765625 -0.265625q-0.28125 -0.28125 -0.28125 -0.703125zm3.252533 5.28125q0 -1.0625 0.40625 -1.875q0.40625 -0.828125 1.15625 -1.265625q0.765625 -0.453125 1.765625 -0.453125q1.4375 0 2.328125 0.875q0.90625 0.875 1.015625 2.359375l0 0.484375q0 1.625 -0.90625 2.609375q-0.890625 0.9687576 -2.421875 0.9687576q-1.515625 0 -2.4375 -0.9687576q-0.90625 -0.984375 -0.90625 -2.65625l0 -0.078125zm1.890625 0.125q0 1.0 0.375 1.53125q0.375 0.53125 1.078125 0.53125q0.6875 0 1.0625 -0.515625q0.390625 -0.53125 0.390625 -1.671875q0 -0.984375 -0.390625 -1.53125q-0.375 -0.546875 -1.078125 -0.546875q-0.6875 0 -1.0625 0.546875q-0.375 0.53125 -0.375 1.65625zm7.6767426 -3.59375l0.0625 0.8125q0.75 -0.9375 2.015625 -0.9375q1.125 0 1.671875 0.65625q0.546875 0.65625 0.5625 1.96875l0 4.5468826l-1.890625 0l0 -4.5000076q0 -0.609375 -0.265625 -0.875q-0.25 -0.265625 -0.859375 -0.265625q-0.78125 0 -1.1875 0.671875l0 4.9687576l-1.875 0l0 -7.0468826l1.765625 0zm9.542664 5.09375q0 -0.34375 -0.34375 -0.53125q-0.328125 -0.203125 -1.09375 -0.359375q-2.515625 -0.53125 -2.515625 -2.140625q0 -0.9375 0.78125 -1.5625q0.78125 -0.625 2.03125 -0.625q1.34375 0 2.140625 0.640625q0.8125 0.625 0.8125 1.625l-1.875 0q0 -0.390625 -0.265625 -0.65625q-0.265625 -0.265625 -0.8125 -0.265625q-0.46875 0 -0.734375 0.21875q-0.265625 0.203125 -0.265625 0.546875q0 0.3125 0.296875 0.5q0.296875 0.1875 1.0 0.328125q0.703125 0.140625 1.1875 0.3125q1.484375 0.546875 1.484375 1.890625q0 0.96875 -0.828125 1.5625076q-0.8125 0.59375 -2.125 0.59375q-0.890625 0 -1.578125 -0.3125q-0.6875 -0.31250763 -1.078125 -0.8593826q-0.390625 -0.546875 -0.390625 -1.1875l1.78125 0q0.03125 0.5 0.375 0.765625q0.34375 0.265625 0.921875 0.265625q0.546875 0 0.8125 -0.203125q0.28125 -0.203125 0.28125 -0.546875zm6.4530716 -1.90625q0 -1.484375 0.390625 -2.828125q0.390625 -1.34375 1.171875 -2.375q0.78125 -1.046875 1.671875 -1.453125l0.375 1.015625q-0.953125 0.703125 -1.484375 2.171875q-0.53125 1.46875 -0.53125 3.4375l0 0.203125q0 1.96875 0.515625 3.4531326q0.53125 1.46875 1.5 2.203125l-0.375 1.0q-0.875 -0.40625 -1.640625 -1.421875q-0.765625 -1.0 -1.171875 -2.3125076q-0.40625 -1.3125 -0.421875 -2.734375l0 -0.359375zm12.147919 0.703125q-0.109375 1.53125 -1.125 2.40625q-1.015625 0.8750076 -2.6875 0.8750076q-1.8125 0 -2.859375 -1.2187576q-1.046875 -1.234375 -1.046875 -3.375l0 -0.578125q0 -1.359375 0.46875 -2.40625q0.484375 -1.046875 1.375 -1.59375q0.90625 -0.5625 2.09375 -0.5625q1.640625 0 2.640625 0.890625q1.0 0.875 1.15625 2.453125l-1.953125 0q-0.0625 -0.90625 -0.515625 -1.3125q-0.4375 -0.421875 -1.328125 -0.421875q-0.984375 0 -1.46875 0.703125q-0.484375 0.6875 -0.5 2.15625l0 0.71875q0 1.53125 0.46875 2.25q0.46875 0.703125 1.46875 0.703125q0.90625 0 1.34375 -0.40625q0.453125 -0.421875 0.515625 -1.28125l1.953125 0zm3.3611755 3.1562576l-1.953125 0l0 -9.468758l1.953125 0l0 9.468758zm2.2758331 0.8125l-1.390625 0l3.484375 -10.281258l1.390625 0l-3.484375 10.281258zm11.947281 -3.9687576q-0.109375 1.53125 -1.125 2.40625q-1.015625 0.8750076 -2.6875 0.8750076q-1.8125 0 -2.859375 -1.2187576q-1.046875 -1.234375 -1.046875 -3.375l0 -0.578125q0 -1.359375 0.46875 -2.40625q0.484375 -1.046875 1.375 -1.59375q0.90625 -0.5625 2.09375 -0.5625q1.640625 0 2.640625 0.890625q1.0 0.875 1.15625 2.453125l-1.953125 0q-0.0625 -0.90625 -0.515625 -1.3125q-0.4375 -0.421875 -1.328125 -0.421875q-0.984375 0 -1.46875 0.703125q-0.484375 0.6875 -0.5 2.15625l0 0.71875q0 1.53125 0.46875 2.25q0.46875 0.703125 1.46875 0.703125q0.90625 0 1.34375 -0.40625q0.453125 -0.421875 0.515625 -1.28125l1.953125 0zm1.2830505 3.1562576l0 -9.468758l2.921875 0q1.25 0 2.234375 0.5625q0.984375 0.5625 1.53125 1.59375q0.5625 1.03125 0.5625 2.359375l0 0.4375q0 1.3125 -0.546875 2.34375q-0.546875 1.03125 -1.53125 1.609375q-0.984375 0.5625076 -2.234375 0.5625076l-2.9375 0zm1.953125 -7.8906326l0 6.328125l0.9375 0q1.15625 0 1.75 -0.75q0.609375 -0.75 0.625 -2.140625l0 -0.5q0 -1.453125 -0.609375 -2.1875q-0.59375 -0.75 -1.734375 -0.75l-0.96875 0zm9.833862 4.1875q0 1.46875 -0.421875 2.828125q-0.421875 1.3593826 -1.21875 2.4062576q-0.796875 1.046875 -1.703125 1.4375l-0.359375 -1.0q0.921875 -0.703125 1.453125 -2.15625q0.53125 -1.4531326 0.546875 -3.3281326l0 -0.34375q0 -1.953125 -0.53125 -3.4375q-0.53125 -1.484375 -1.46875 -2.21875l0.359375 -1.0q0.890625 0.390625 1.671875 1.40625q0.78125 1.0 1.203125 2.34375q0.4375 1.328125 0.46875 2.765625l0 0.296875z" fill-rule="nonzero"/><path fill="#000000" fill-opacity="0.0" d="m363.24933 142.91864l0 96.53543" fill-rule="evenodd"/><path stroke="#b7b7b7" stroke-width="3.0" stroke-linejoin="round" stroke-linecap="butt" d="m363.24933 142.91864l0 78.53543" fill-rule="evenodd"/><path fill="#b7b7b7" stroke="#b7b7b7" stroke-width="3.0" stroke-linecap="butt" d="m358.29416 221.45407l4.9551697 13.614288l4.9552 -13.614288z" fill-rule="evenodd"/><path fill="#000000" fill-opacity="0.0" d="m395.24933 142.91864l0 96.53543" fill-rule="evenodd"/><path stroke="#b7b7b7" stroke-width="3.0" stroke-linejoin="round" stroke-linecap="butt" d="m395.24933 160.91864l0 78.53543" fill-rule="evenodd"/><path fill="#b7b7b7" stroke="#b7b7b7" stroke-width="3.0" stroke-linecap="butt" d="m400.20453 160.91864l-4.9552 -13.614304l-4.9551697 13.614304z" fill-rule="evenodd"/><path fill="#000000" fill-opacity="0.0" d="m394.9239 172.37927l102.17322 0l0 34.393692l-102.17322 0z" fill-rule="evenodd"/><path fill="#000000" d="m419.48828 192.97614q-0.53125 0.640625 -1.5 0.984375q-0.953125 0.34375 -2.125 0.34375q-1.234375 0 -2.15625 -0.53125q-0.921875 -0.53125 -1.4375 -1.546875q-0.5 -1.03125 -0.515625 -2.40625l0 -0.65625q0 -1.421875 0.46875 -2.453125q0.484375 -1.03125 1.390625 -1.578125q0.90625 -0.5625 2.109375 -0.5625q1.6875 0 2.640625 0.8125q0.953125 0.796875 1.125 2.328125l-1.90625 0q-0.125 -0.8125 -0.578125 -1.1875q-0.4375 -0.375 -1.21875 -0.375q-1.0 0 -1.515625 0.75q-0.515625 0.75 -0.53125 2.21875l0 0.609375q0 1.484375 0.5625 2.25q0.578125 0.765625 1.671875 0.765625q1.09375 0 1.5625 -0.46875l0 -1.640625l-1.78125 0l0 -1.4375l3.734375 0l0 3.78125zm4.703491 1.328125q-1.546875 0 -2.53125 -0.9375q-0.96875 -0.953125 -0.96875 -2.53125l0 -0.1875q0 -1.0625 0.40625 -1.890625q0.40625 -0.84375 1.15625 -1.296875q0.765625 -0.453125 1.71875 -0.453125q1.453125 0 2.28125 0.921875q0.828125 0.90625 0.828125 2.578125l0 0.765625l-4.484375 0q0.09375 0.6875 0.546875 1.109375q0.46875 0.40625 1.171875 0.40625q1.078125 0 1.6875 -0.78125l0.921875 1.03125q-0.421875 0.59375 -1.140625 0.9375q-0.71875 0.328125 -1.59375 0.328125zm-0.21875 -5.78125q-0.5625 0 -0.90625 0.390625q-0.34375 0.375 -0.453125 1.078125l2.625 0l0 -0.15625q-0.015625 -0.625 -0.34375 -0.96875q-0.328125 -0.34375 -0.921875 -0.34375zm6.4229736 -3.109375l0 1.71875l1.203125 0l0 1.390625l-1.203125 0l0 3.515625q0 0.390625 0.15625 0.5625q0.15625 0.15625 0.578125 0.15625q0.3125 0 0.546875 -0.046875l0 1.4375q-0.546875 0.15625 -1.140625 0.15625q-1.984375 0 -2.015625 -2.0l0 -3.78125l-1.03125 0l0 -1.390625l1.03125 0l0 -1.71875l1.875 0zm8.509979 7.375q0.515625 0 0.84375 -0.28125q0.328125 -0.28125 0.328125 -0.765625l1.765625 0q0 0.71875 -0.390625 1.3125q-0.375 0.59375 -1.046875 0.921875q-0.671875 0.328125 -1.46875 0.328125q-1.515625 0 -2.390625 -0.953125q-0.875 -0.96875 -0.875 -2.65625l0 -0.125q0 -1.625 0.859375 -2.59375q0.875 -0.96875 2.390625 -0.96875q1.3125 0 2.109375 0.75q0.8125 0.75 0.8125 2.0l-1.765625 0q0 -0.546875 -0.328125 -0.890625q-0.328125 -0.34375 -0.859375 -0.34375q-0.65625 0 -1.0 0.484375q-0.328125 0.484375 -0.328125 1.546875l0 0.203125q0 1.078125 0.328125 1.5625q0.328125 0.46875 1.015625 0.46875zm3.716034 -2.1875q0 -1.0625 0.40625 -1.875q0.40625 -0.828125 1.15625 -1.265625q0.765625 -0.453125 1.765625 -0.453125q1.4375 0 2.328125 0.875q0.90625 0.875 1.015625 2.359375l0 0.484375q0 1.625 -0.90625 2.609375q-0.890625 0.96875 -2.421875 0.96875q-1.515625 0 -2.4375 -0.96875q-0.90625 -0.984375 -0.90625 -2.65625l0 -0.078125zm1.890625 0.125q0 1.0 0.375 1.53125q0.375 0.53125 1.078125 0.53125q0.6875 0 1.0625 -0.515625q0.390625 -0.53125 0.390625 -1.671875q0 -0.984375 -0.390625 -1.53125q-0.375 -0.546875 -1.078125 -0.546875q-0.6875 0 -1.0625 0.546875q-0.375 0.53125 -0.375 1.65625zm7.6767273 -3.59375l0.0625 0.8125q0.75 -0.9375 2.015625 -0.9375q1.125 0 1.671875 0.65625q0.546875 0.65625 0.5625 1.96875l0 4.546875l-1.890625 0l0 -4.5q0 -0.609375 -0.265625 -0.875q-0.25 -0.265625 -0.859375 -0.265625q-0.78125 0 -1.1875 0.671875l0 4.96875l-1.875 0l0 -7.046875l1.765625 0zm7.9801636 -1.71875l0 1.71875l1.203125 0l0 1.390625l-1.203125 0l0 3.515625q0 0.390625 0.15625 0.5625q0.15625 0.15625 0.578125 0.15625q0.3125 0 0.546875 -0.046875l0 1.4375q-0.546875 0.15625 -1.140625 0.15625q-1.984375 0 -2.015625 -2.0l0 -3.78125l-1.03125 0l0 -1.390625l1.03125 0l0 -1.71875l1.875 0zm5.5034485 8.890625q-1.546875 0 -2.53125 -0.9375q-0.96875 -0.953125 -0.96875 -2.53125l0 -0.1875q0 -1.0625 0.40625 -1.890625q0.40625 -0.84375 1.15625 -1.296875q0.765625 -0.453125 1.71875 -0.453125q1.453125 0 2.28125 0.921875q0.828125 0.90625 0.828125 2.578125l0 0.765625l-4.484375 0q0.09375 0.6875 0.546875 1.109375q0.46875 0.40625 1.171875 0.40625q1.078125 0 1.6875 -0.78125l0.921875 1.03125q-0.421875 0.59375 -1.140625 0.9375q-0.71875 0.328125 -1.59375 0.328125zm-0.21875 -5.78125q-0.5625 0 -0.90625 0.390625q-0.34375 0.375 -0.453125 1.078125l2.625 0l0 -0.15625q-0.015625 -0.625 -0.34375 -0.96875q-0.328125 -0.34375 -0.921875 -0.34375zm5.9073486 -1.390625l0.0625 0.8125q0.75 -0.9375 2.015625 -0.9375q1.125 0 1.671875 0.65625q0.546875 0.65625 0.5625 1.96875l0 4.546875l-1.890625 0l0 -4.5q0 -0.609375 -0.265625 -0.875q-0.25 -0.265625 -0.859375 -0.265625q-0.78125 0 -1.1875 0.671875l0 4.96875l-1.875 0l0 -7.046875l1.765625 0zm7.9801636 -1.71875l0 1.71875l1.203125 0l0 1.390625l-1.203125 0l0 3.515625q0 0.390625 0.15625 0.5625q0.15625 0.15625 0.578125 0.15625q0.3125 0 0.546875 -0.046875l0 1.4375q-0.546875 0.15625 -1.140625 0.15625q-1.984375 0 -2.015625 -2.0l0 -3.78125l-1.03125 0l0 -1.390625l1.03125 0l0 -1.71875l1.875 0z" fill-rule="nonzero"/><path fill="#000000" d="m428.23874 208.92926q-0.484375 0.703125 -1.34375 1.046875q-0.859375 0.328125 -2.0 0.328125q-1.171875 0 -2.0625 -0.53125q-0.890625 -0.546875 -1.390625 -1.546875q-0.484375 -1.015625 -0.5 -2.328125l0 -0.828125q0 -2.140625 1.0 -3.3125q1.0 -1.1875 2.796875 -1.1875q1.484375 0 2.390625 0.765625q0.90625 0.75 1.109375 2.140625l-1.25 0q-0.34375 -1.875 -2.234375 -1.875q-1.265625 0 -1.90625 0.890625q-0.640625 0.875 -0.65625 2.546875l0 0.78125q0 1.59375 0.71875 2.53125q0.734375 0.9375 1.984375 0.9375q0.703125 0 1.234375 -0.15625q0.53125 -0.15625 0.875 -0.53125l0 -2.125l-2.203125 0l0 -1.015625l3.4375 0l0 3.46875zm5.297241 -4.71875q-0.265625 -0.03125 -0.59375 -0.03125q-1.1875 0 -1.609375 1.0l0 5.0l-1.203125 0l0 -7.046875l1.171875 0l0.03125 0.8125q0.578125 -0.9375 1.671875 -0.9375q0.34375 0 0.53125 0.09375l0 1.109375zm5.202667 5.96875q-0.109375 -0.203125 -0.171875 -0.734375q-0.84375 0.859375 -2.015625 0.859375q-1.03125 0 -1.703125 -0.578125q-0.671875 -0.59375 -0.671875 -1.5q0 -1.09375 0.828125 -1.703125q0.84375 -0.609375 2.359375 -0.609375l1.171875 0l0 -0.5625q0 -0.625 -0.375 -1.0q-0.375 -0.375 -1.109375 -0.375q-0.640625 0 -1.078125 0.328125q-0.4375 0.328125 -0.4375 0.78125l-1.203125 0q0 -0.515625 0.359375 -1.0q0.375 -0.5 1.015625 -0.78125q0.65625 -0.296875 1.421875 -0.296875q1.21875 0 1.90625 0.609375q0.6875 0.609375 0.71875 1.671875l0 3.25q0 0.96875 0.234375 1.53125l0 0.109375l-1.25 0zm-2.0 -0.921875q0.5625 0 1.0625 -0.28125q0.515625 -0.296875 0.734375 -0.765625l0 -1.453125l-0.9375 0q-2.21875 0 -2.21875 1.296875q0 0.5625 0.375 0.890625q0.390625 0.3125 0.984375 0.3125zm10.843536 -2.515625q0 1.609375 -0.734375 2.59375q-0.734375 0.96875 -2.0 0.96875q-1.28125 0 -2.015625 -0.8125l0 3.390625l-1.203125 0l0 -9.75l1.109375 0l0.046875 0.78125q0.75 -0.90625 2.046875 -0.90625q1.265625 0 2.0 0.953125q0.75 0.953125 0.75 2.671875l0 0.109375zm-1.203125 -0.140625q0 -1.1875 -0.515625 -1.875q-0.5 -0.703125 -1.390625 -0.703125q-1.09375 0 -1.640625 0.96875l0 3.375q0.546875 0.953125 1.65625 0.953125q0.875 0 1.375 -0.671875q0.515625 -0.6875 0.515625 -2.046875zm3.930664 -2.609375q0.8125 -0.984375 2.09375 -0.984375q2.234375 0 2.25 2.515625l0 4.65625l-1.203125 0l0 -4.65625q-0.015625 -0.765625 -0.359375 -1.125q-0.328125 -0.375 -1.0625 -0.375q-0.578125 0 -1.03125 0.3125q-0.4375 0.3125 -0.6875 0.828125l0 5.015625l-1.203125 0l0 -10.0l1.203125 0l0 3.8125zm13.575256 1.75q0 1.375 -0.4375 2.375q-0.4375 0.984375 -1.234375 1.546875l1.703125 1.328125l-0.859375 0.78125l-2.0 -1.578125q-0.46875 0.109375 -0.984375 0.109375q-1.125 0 -2.0 -0.546875q-0.859375 -0.546875 -1.34375 -1.5625q-0.46875 -1.015625 -0.484375 -2.359375l0 -0.6875q0 -1.359375 0.46875 -2.40625q0.484375 -1.0625 1.34375 -1.609375q0.875 -0.5625 2.0 -0.5625q1.140625 0 2.015625 0.5625q0.875 0.546875 1.34375 1.59375q0.46875 1.03125 0.46875 2.421875l0 0.59375zm-1.25 -0.609375q0 -1.671875 -0.671875 -2.578125q-0.671875 -0.90625 -1.90625 -0.90625q-1.171875 0 -1.859375 0.90625q-0.671875 0.890625 -0.703125 2.5l0 0.6875q0 1.625 0.671875 2.5625q0.6875 0.9375 1.890625 0.9375q1.21875 0 1.875 -0.875q0.671875 -0.875 0.703125 -2.53125l0 -0.703125zm4.428711 4.03125l4.484375 0l0 1.015625l-5.75 0l0 -9.46875l1.265625 0l0 8.453125z" fill-rule="nonzero"/><path fill="#000000" fill-opacity="0.0" d="m150.49344 205.62466l102.17323 0l0 34.393707l-102.17323 0z" fill-rule="evenodd"/><path fill="#000000" d="m180.91364 224.69029l1.28125 -6.734375l1.953125 0l-2.109375 9.46875l-1.96875 0l-1.53125 -6.34375l-1.546875 6.34375l-1.96875 0l-2.09375 -9.46875l1.9375 0l1.28125 6.71875l1.5625 -6.71875l1.65625 0l1.546875 6.734375zm7.203781 2.859375q-1.546875 0 -2.53125 -0.9375q-0.96875 -0.953125 -0.96875 -2.53125l0 -0.1875q0 -1.0625 0.40625 -1.890625q0.40625 -0.84375 1.15625 -1.296875q0.765625 -0.453125 1.71875 -0.453125q1.453125 0 2.28125 0.921875q0.828125 0.90625 0.828125 2.578125l0 0.765625l-4.484375 0q0.09375 0.6875 0.546875 1.109375q0.46875 0.40625 1.171875 0.40625q1.078125 0 1.6875 -0.78125l0.921875 1.03125q-0.421875 0.59375 -1.140625 0.9375q-0.71875 0.328125 -1.59375 0.328125zm-0.21875 -5.78125q-0.5625 0 -0.90625 0.390625q-0.34375 0.375 -0.453125 1.078125l2.625 0l0 -0.15625q-0.015625 -0.625 -0.34375 -0.96875q-0.328125 -0.34375 -0.921875 -0.34375zm10.516724 2.203125q0 1.6875 -0.71875 2.640625q-0.71875 0.9375 -2.015625 0.9375q-1.140625 0 -1.828125 -0.875l-0.078125 0.75l-1.703125 0l0 -10.0l1.890625 0l0 3.59375q0.640625 -0.765625 1.703125 -0.765625q1.296875 0 2.015625 0.953125q0.734375 0.9375 0.734375 2.65625l0 0.109375zm-1.875 -0.140625q0 -1.0625 -0.34375 -1.546875q-0.328125 -0.5 -1.0 -0.5q-0.90625 0 -1.234375 0.734375l0 2.78125q0.34375 0.734375 1.25 0.734375q0.90625 0 1.1875 -0.890625q0.140625 -0.4375 0.140625 -1.3125zm10.878586 3.59375l-1.953125 0l0 -4.0625l-3.8125 0l0 4.0625l-1.953125 0l0 -9.46875l1.953125 0l0 3.828125l3.8125 0l0 -3.828125l1.953125 0l0 9.46875zm1.2762756 -3.578125q0 -1.0625 0.40625 -1.875q0.40625 -0.828125 1.15625 -1.265625q0.765625 -0.453125 1.765625 -0.453125q1.4375 0 2.328125 0.875q0.90625 0.875 1.015625 2.359375l0 0.484375q0 1.625 -0.90625 2.609375q-0.890625 0.96875 -2.421875 0.96875q-1.515625 0 -2.4375 -0.96875q-0.90625 -0.984375 -0.90625 -2.65625l0 -0.078125zm1.890625 0.125q0 1.0 0.375 1.53125q0.375 0.53125 1.078125 0.53125q0.6875 0 1.0625 -0.515625q0.390625 -0.53125 0.390625 -1.671875q0 -0.984375 -0.390625 -1.53125q-0.375 -0.546875 -1.078125 -0.546875q-0.6875 0 -1.0625 0.546875q-0.375 0.53125 -0.375 1.65625zm5.6454926 -0.125q0 -1.0625 0.40625 -1.875q0.40625 -0.828125 1.15625 -1.265625q0.765625 -0.453125 1.765625 -0.453125q1.4375 0 2.328125 0.875q0.90625 0.875 1.015625 2.359375l0 0.484375q0 1.625 -0.90625 2.609375q-0.890625 0.96875 -2.421875 0.96875q-1.515625 0 -2.4375 -0.96875q-0.90625 -0.984375 -0.90625 -2.65625l0 -0.078125zm1.890625 0.125q0 1.0 0.375 1.53125q0.375 0.53125 1.078125 0.53125q0.6875 0 1.0625 -0.515625q0.390625 -0.53125 0.390625 -1.671875q0 -0.984375 -0.390625 -1.53125q-0.375 -0.546875 -1.078125 -0.546875q-0.6875 0 -1.0625 0.546875q-0.375 0.53125 -0.375 1.65625zm8.504868 0.625l-0.671875 0.6875l0 2.140625l-1.890625 0l0 -10.0l1.890625 0l0 5.546875l0.359375 -0.46875l1.796875 -2.125l2.265625 0l-2.546875 2.9375l2.765625 4.109375l-2.15625 0l-1.8125 -2.828125z" fill-rule="nonzero"/><path fill="#000000" d="m167.23488 236.37779l0.046875 0.890625q0.796875 -1.015625 2.109375 -1.015625q2.234375 0 2.25 2.515625l0 4.65625l-1.203125 0l0 -4.65625q-0.015625 -0.765625 -0.359375 -1.125q-0.328125 -0.375 -1.0625 -0.375q-0.578125 0 -1.03125 0.3125q-0.4375 0.3125 -0.6875 0.828125l0 5.015625l-1.203125 0l0 -7.046875l1.140625 0zm9.135147 7.171875q-1.421875 0 -2.328125 -0.9375q-0.890625 -0.9375 -0.890625 -2.515625l0 -0.21875q0 -1.046875 0.390625 -1.859375q0.40625 -0.828125 1.125 -1.296875q0.71875 -0.46875 1.5625 -0.46875q1.375 0 2.125 0.90625q0.765625 0.90625 0.765625 2.59375l0 0.5l-4.765625 0q0.015625 1.03125 0.59375 1.671875q0.59375 0.640625 1.484375 0.640625q0.640625 0 1.078125 -0.25q0.453125 -0.265625 0.78125 -0.6875l0.734375 0.5625q-0.875 1.359375 -2.65625 1.359375zm-0.140625 -6.3125q-0.734375 0 -1.234375 0.53125q-0.484375 0.53125 -0.609375 1.484375l3.53125 0l0 -0.078125q-0.046875 -0.921875 -0.5 -1.421875q-0.4375 -0.515625 -1.1875 -0.515625zm10.514175 4.53125l1.359375 -5.390625l1.203125 0l-2.046875 7.046875l-0.984375 0l-1.703125 -5.34375l-1.671875 5.34375l-0.96875 0l-2.046875 -7.046875l1.203125 0l1.375 5.28125l1.640625 -5.28125l0.96875 0l1.671875 5.390625zm9.9088745 0.796875q0.640625 0 1.125 -0.390625q0.484375 -0.390625 0.53125 -0.96875l1.140625 0q-0.03125 0.609375 -0.421875 1.15625q-0.375 0.546875 -1.015625 0.875q-0.640625 0.3125 -1.359375 0.3125q-1.4375 0 -2.296875 -0.953125q-0.84375 -0.96875 -0.84375 -2.625l0 -0.203125q0 -1.03125 0.375 -1.828125q0.390625 -0.796875 1.09375 -1.234375q0.703125 -0.453125 1.671875 -0.453125q1.171875 0 1.953125 0.71875q0.796875 0.703125 0.84375 1.828125l-1.140625 0q-0.046875 -0.671875 -0.515625 -1.109375q-0.46875 -0.453125 -1.140625 -0.453125q-0.921875 0 -1.4375 0.671875q-0.5 0.65625 -0.5 1.90625l0 0.21875q0 1.21875 0.5 1.875q0.515625 0.65625 1.4375 0.65625zm3.8358154 -2.71875q0 -1.046875 0.40625 -1.875q0.40625 -0.828125 1.125 -1.265625q0.734375 -0.453125 1.65625 -0.453125q1.4375 0 2.328125 1.0q0.890625 0.984375 0.890625 2.640625l0 0.09375q0 1.015625 -0.390625 1.84375q-0.390625 0.8125 -1.125 1.265625q-0.734375 0.453125 -1.6875 0.453125q-1.421875 0 -2.3125 -0.984375q-0.890625 -1.0 -0.890625 -2.640625l0 -0.078125zm1.203125 0.140625q0 1.171875 0.546875 1.875q0.546875 0.703125 1.453125 0.703125q0.921875 0 1.453125 -0.71875q0.546875 -0.71875 0.546875 -2.0q0 -1.171875 -0.546875 -1.890625q-0.546875 -0.71875 -1.46875 -0.71875q-0.890625 0 -1.4375 0.71875q-0.546875 0.703125 -0.546875 2.03125zm7.8511963 -3.609375l0.046875 0.890625q0.796875 -1.015625 2.109375 -1.015625q2.234375 0 2.25 2.515625l0 4.65625l-1.203125 0l0 -4.65625q-0.015625 -0.765625 -0.359375 -1.125q-0.328125 -0.375 -1.0625 -0.375q-0.578125 0 -1.03125 0.3125q-0.4375 0.3125 -0.6875 0.828125l0 5.015625l-1.203125 0l0 -7.046875l1.140625 0zm7.853897 -1.703125l0 1.703125l1.3125 0l0 0.9375l-1.3125 0l0 4.359375q0 0.421875 0.171875 0.640625q0.171875 0.21875 0.59375 0.21875q0.21875 0 0.578125 -0.078125l0 0.96875q-0.46875 0.125 -0.921875 0.125q-0.8125 0 -1.21875 -0.484375q-0.40625 -0.484375 -0.40625 -1.390625l0 -4.359375l-1.28125 0l0 -0.9375l1.28125 0l0 -1.703125l1.203125 0zm5.635025 8.875q-1.421875 0 -2.328125 -0.9375q-0.890625 -0.9375 -0.890625 -2.515625l0 -0.21875q0 -1.046875 0.390625 -1.859375q0.40625 -0.828125 1.125 -1.296875q0.71875 -0.46875 1.5625 -0.46875q1.375 0 2.125 0.90625q0.765625 0.90625 0.765625 2.59375l0 0.5l-4.765625 0q0.015625 1.03125 0.59375 1.671875q0.59375 0.640625 1.484375 0.640625q0.640625 0 1.078125 -0.25q0.453125 -0.265625 0.78125 -0.6875l0.734375 0.5625q-0.875 1.359375 -2.65625 1.359375zm-0.140625 -6.3125q-0.734375 0 -1.234375 0.53125q-0.484375 0.53125 -0.609375 1.484375l3.53125 0l0 -0.078125q-0.046875 -0.921875 -0.5 -1.421875q-0.4375 -0.515625 -1.1875 -0.515625zm5.4204254 -0.859375l0.046875 0.890625q0.796875 -1.015625 2.109375 -1.015625q2.234375 0 2.25 2.515625l0 4.65625l-1.203125 0l0 -4.65625q-0.015625 -0.765625 -0.359375 -1.125q-0.328125 -0.375 -1.0625 -0.375q-0.578125 0 -1.03125 0.3125q-0.4375 0.3125 -0.6875 0.828125l0 5.015625l-1.203125 0l0 -7.046875l1.140625 0zm7.853897 -1.703125l0 1.703125l1.3125 0l0 0.9375l-1.3125 0l0 4.359375q0 0.421875 0.171875 0.640625q0.171875 0.21875 0.59375 0.21875q0.21875 0 0.578125 -0.078125l0 0.96875q-0.46875 0.125 -0.921875 0.125q-0.8125 0 -1.21875 -0.484375q-0.40625 -0.484375 -0.40625 -1.390625l0 -4.359375l-1.28125 0l0 -0.9375l1.28125 0l0 -1.703125l1.203125 0z" fill-rule="nonzero"/><path fill="#000000" fill-opacity="0.0" d="m577.51184 146.56168l230.01575 0l0 34.393707l-230.01575 0z" fill-rule="evenodd"/><path fill="#000000" d="m592.21497 164.8473l-3.578125 0l-0.796875 2.234375l-1.15625 0l3.25 -8.53125l0.984375 0l3.265625 8.53125l-1.15625 0l-0.8125 -2.234375zm-3.234375 -0.921875l2.90625 0l-1.453125 -3.984375l-1.453125 3.984375zm7.203125 -3.1875l0.03125 0.703125q0.6875 -0.8125 1.875 -0.8125q1.328125 0 1.8125 1.015625q0.3125 -0.453125 0.8125 -0.734375q0.515625 -0.28125 1.203125 -0.28125q2.09375 0 2.125 2.203125l0 4.25l-1.078125 0l0 -4.1875q0 -0.671875 -0.3125 -1.0q-0.3125 -0.34375 -1.046875 -0.34375q-0.609375 0 -1.015625 0.359375q-0.390625 0.359375 -0.453125 0.96875l0 4.203125l-1.078125 0l0 -4.15625q0 -1.375 -1.359375 -1.375q-1.0625 0 -1.453125 0.90625l0 4.625l-1.09375 0l0 -6.34375l1.03125 0zm13.408203 6.34375q-0.09375 -0.1875 -0.15625 -0.671875q-0.75 0.796875 -1.796875 0.796875q-0.9375 0 -1.546875 -0.53125q-0.59375 -0.53125 -0.59375 -1.359375q0 -0.984375 0.75 -1.53125q0.75 -0.546875 2.125 -0.546875l1.046875 0l0 -0.5q0 -0.5625 -0.34375 -0.890625q-0.328125 -0.34375 -1.0 -0.34375q-0.578125 0 -0.96875 0.296875q-0.390625 0.28125 -0.390625 0.703125l-1.09375 0q0 -0.484375 0.328125 -0.921875q0.34375 -0.4375 0.921875 -0.6875q0.578125 -0.265625 1.265625 -0.265625q1.109375 0 1.71875 0.546875q0.625 0.546875 0.65625 1.5l0 2.921875q0 0.875 0.21875 1.390625l0 0.09375l-1.140625 0zm-1.796875 -0.828125q0.515625 0 0.96875 -0.265625q0.453125 -0.265625 0.65625 -0.6875l0 -1.296875l-0.84375 0q-2.0 0 -2.0 1.171875q0 0.5 0.34375 0.796875q0.34375 0.28125 0.875 0.28125zm5.4335938 -0.0625l3.703125 0l0 0.890625l-5.03125 0l0 -0.796875l3.5 -4.640625l-3.453125 0l0 -0.90625l4.8125 0l0 0.765625l-3.53125 4.6875zm4.5410156 -2.34375q0 -0.921875 0.359375 -1.671875q0.375 -0.75 1.03125 -1.140625q0.65625 -0.40625 1.484375 -0.40625q1.296875 0 2.09375 0.890625q0.8125 0.890625 0.8125 2.390625l0 0.078125q0 0.921875 -0.359375 1.65625q-0.359375 0.734375 -1.015625 1.15625q-0.65625 0.40625 -1.515625 0.40625q-1.28125 0 -2.09375 -0.890625q-0.796875 -0.90625 -0.796875 -2.390625l0 -0.078125zm1.09375 0.140625q0 1.046875 0.484375 1.6875q0.5 0.640625 1.3125 0.640625q0.828125 0 1.3125 -0.640625q0.484375 -0.65625 0.484375 -1.828125q0 -1.03125 -0.5 -1.671875q-0.484375 -0.65625 -1.3125 -0.65625q-0.796875 0 -1.296875 0.640625q-0.484375 0.625 -0.484375 1.828125zm7.0625 -3.25l0.03125 0.796875q0.734375 -0.90625 1.90625 -0.90625q2.015625 0 2.03125 2.265625l0 4.1875l-1.09375 0l0 -4.203125q0 -0.671875 -0.3125 -1.0q-0.296875 -0.328125 -0.953125 -0.328125q-0.53125 0 -0.9375 0.28125q-0.390625 0.28125 -0.609375 0.734375l0 4.515625l-1.078125 0l0 -6.34375l1.015625 0zm11.248047 2.546875q-1.4375 -0.421875 -2.109375 -1.03125q-0.65625 -0.609375 -0.65625 -1.5q0 -1.0 0.796875 -1.65625q0.8125 -0.671875 2.109375 -0.671875q0.875 0 1.5625 0.34375q0.6875 0.34375 1.0625 0.9375q0.390625 0.59375 0.390625 1.3125l-1.140625 0q0 -0.78125 -0.5 -1.21875q-0.484375 -0.4375 -1.375 -0.4375q-0.828125 0 -1.296875 0.375q-0.46875 0.359375 -0.46875 1.0q0 0.53125 0.4375 0.890625q0.453125 0.359375 1.515625 0.65625q1.0625 0.296875 1.65625 0.65625q0.609375 0.359375 0.890625 0.84375q0.296875 0.484375 0.296875 1.125q0 1.046875 -0.8125 1.671875q-0.8125 0.625 -2.15625 0.625q-0.890625 0 -1.65625 -0.34375q-0.75 -0.34375 -1.171875 -0.921875q-0.40625 -0.59375 -0.40625 -1.328125l1.125 0q0 0.765625 0.578125 1.21875q0.578125 0.453125 1.53125 0.453125q0.890625 0 1.359375 -0.359375q0.46875 -0.375 0.46875 -1.0q0 -0.625 -0.4375 -0.96875q-0.4375 -0.34375 -1.59375 -0.671875zm5.9003906 -1.0l0.8125 0q0.78125 -0.015625 1.21875 -0.40625q0.4375 -0.390625 0.4375 -1.0625q0 -1.5 -1.5 -1.5q-0.703125 0 -1.125 0.40625q-0.40625 0.40625 -0.40625 1.0625l-1.09375 0q0 -1.015625 0.734375 -1.6875q0.75 -0.671875 1.890625 -0.671875q1.203125 0 1.890625 0.640625q0.6875 0.640625 0.6875 1.78125q0 0.5625 -0.359375 1.078125q-0.359375 0.515625 -0.984375 0.78125q0.703125 0.21875 1.078125 0.734375q0.390625 0.515625 0.390625 1.265625q0 1.140625 -0.75 1.828125q-0.75 0.671875 -1.953125 0.671875q-1.1875 0 -1.953125 -0.65625q-0.75 -0.65625 -0.75 -1.71875l1.09375 0q0 0.671875 0.4375 1.078125q0.4375 0.40625 1.1875 0.40625q0.78125 0 1.1875 -0.40625q0.421875 -0.421875 0.421875 -1.1875q0 -0.734375 -0.453125 -1.125q-0.453125 -0.40625 -1.328125 -0.421875l-0.8125 0l0 -0.890625zm11.349609 0.21875l2.390625 0l0 1.03125l-2.390625 0l0 2.6875l-1.078125 0l0 -2.6875l-2.390625 0l0 -1.03125l2.390625 0l0 -2.484375l1.078125 0l0 2.484375zm13.1171875 1.875q-0.15625 1.34375 -1.0 2.09375q-0.84375 0.734375 -2.234375 0.734375q-1.515625 0 -2.421875 -1.078125q-0.90625 -1.09375 -0.90625 -2.921875l0 -0.8125q0 -1.1875 0.421875 -2.09375q0.421875 -0.90625 1.203125 -1.390625q0.78125 -0.484375 1.796875 -0.484375q1.359375 0 2.171875 0.765625q0.828125 0.765625 0.96875 2.09375l-1.125 0q-0.15625 -1.015625 -0.640625 -1.46875q-0.484375 -0.453125 -1.375 -0.453125q-1.078125 0 -1.6875 0.796875q-0.609375 0.796875 -0.609375 2.265625l0 0.828125q0 1.390625 0.578125 2.21875q0.578125 0.8125 1.625 0.8125q0.9375 0 1.4375 -0.421875q0.5 -0.4375 0.671875 -1.484375l1.125 0zm2.5449219 2.703125l-1.078125 0l0 -9.0l1.078125 0l0 9.0zm1.4433594 -3.234375q0 -0.921875 0.359375 -1.671875q0.375 -0.75 1.03125 -1.140625q0.65625 -0.40625 1.484375 -0.40625q1.296875 0 2.09375 0.890625q0.8125 0.890625 0.8125 2.390625l0 0.078125q0 0.921875 -0.359375 1.65625q-0.359375 0.734375 -1.015625 1.15625q-0.65625 0.40625 -1.515625 0.40625q-1.28125 0 -2.09375 -0.890625q-0.796875 -0.90625 -0.796875 -2.390625l0 -0.078125zm1.09375 0.140625q0 1.046875 0.484375 1.6875q0.5 0.640625 1.3125 0.640625q0.828125 0 1.3125 -0.640625q0.484375 -0.65625 0.484375 -1.828125q0 -1.03125 -0.5 -1.671875q-0.484375 -0.65625 -1.3125 -0.65625q-0.796875 0 -1.296875 0.640625q-0.484375 0.625 -0.484375 1.828125zm9.953125 2.46875q-0.625 0.75 -1.859375 0.75q-1.015625 0 -1.546875 -0.59375q-0.53125 -0.59375 -0.53125 -1.75l0 -4.125l1.078125 0l0 4.09375q0 1.453125 1.171875 1.453125q1.25 0 1.65625 -0.9375l0 -4.609375l1.09375 0l0 6.34375l-1.03125 0l-0.03125 -0.625zm2.4433594 -2.59375q0 -1.46875 0.6875 -2.34375q0.6875 -0.890625 1.8125 -0.890625q1.109375 0 1.765625 0.75l0 -3.296875l1.078125 0l0 9.0l-1.0 0l-0.046875 -0.6875q-0.65625 0.8125 -1.8125 0.8125q-1.09375 0 -1.796875 -0.90625q-0.6875 -0.90625 -0.6875 -2.359375l0 -0.078125zm1.078125 0.125q0 1.078125 0.4375 1.6875q0.453125 0.609375 1.234375 0.609375q1.03125 0 1.515625 -0.9375l0 -2.90625q-0.484375 -0.890625 -1.5 -0.890625q-0.796875 0 -1.25 0.609375q-0.4375 0.609375 -0.4375 1.828125zm10.830078 -0.671875l-3.59375 0l0 3.765625l-1.125 0l0 -8.53125l5.296875 0l0 0.921875l-4.171875 0l0 2.921875l3.59375 0l0 0.921875zm4.6679688 -1.609375q-0.25 -0.03125 -0.53125 -0.03125q-1.078125 0 -1.453125 0.90625l0 4.5l-1.078125 0l0 -6.34375l1.046875 0l0.015625 0.734375q0.53125 -0.84375 1.515625 -0.84375q0.3125 0 0.484375 0.078125l0 1.0zm0.5839844 2.140625q0 -0.921875 0.359375 -1.671875q0.375 -0.75 1.03125 -1.140625q0.65625 -0.40625 1.484375 -0.40625q1.296875 0 2.09375 0.890625q0.8125 0.890625 0.8125 2.390625l0 0.078125q0 0.921875 -0.359375 1.65625q-0.359375 0.734375 -1.015625 1.15625q-0.65625 0.40625 -1.515625 0.40625q-1.28125 0 -2.09375 -0.890625q-0.796875 -0.90625 -0.796875 -2.390625l0 -0.078125zm1.09375 0.140625q0 1.046875 0.484375 1.6875q0.5 0.640625 1.3125 0.640625q0.828125 0 1.3125 -0.640625q0.484375 -0.65625 0.484375 -1.828125q0 -1.03125 -0.5 -1.671875q-0.484375 -0.65625 -1.3125 -0.65625q-0.796875 0 -1.296875 0.640625q-0.484375 0.625 -0.484375 1.828125zm7.0625 -3.25l0.03125 0.796875q0.734375 -0.90625 1.90625 -0.90625q2.015625 0 2.03125 2.265625l0 4.1875l-1.09375 0l0 -4.203125q0 -0.671875 -0.3125 -1.0q-0.296875 -0.328125 -0.953125 -0.328125q-0.53125 0 -0.9375 0.28125q-0.390625 0.28125 -0.609375 0.734375l0 4.515625l-1.078125 0l0 -6.34375l1.015625 0zm7.0742188 -1.53125l0 1.53125l1.171875 0l0 0.84375l-1.171875 0l0 3.921875q0 0.390625 0.15625 0.578125q0.15625 0.1875 0.53125 0.1875q0.1875 0 0.515625 -0.0625l0 0.875q-0.421875 0.125 -0.828125 0.125q-0.71875 0 -1.09375 -0.4375q-0.375 -0.453125 -0.375 -1.265625l0 -3.921875l-1.15625 0l0 -0.84375l1.15625 0l0 -1.53125l1.09375 0z" fill-rule="nonzero"/><path fill="#000000" d="m594.0587 181.08168l-1.125 0l-4.296875 -6.578125l0 6.578125l-1.140625 0l0 -8.53125l1.140625 0l4.296875 6.609375l0 -6.609375l1.125 0l0 8.53125zm4.4609375 0.125q-1.296875 0 -2.109375 -0.84375q-0.796875 -0.859375 -0.796875 -2.28125l0 -0.1875q0 -0.953125 0.359375 -1.6875q0.359375 -0.75 1.0 -1.15625q0.65625 -0.421875 1.40625 -0.421875q1.234375 0 1.921875 0.8125q0.6875 0.8125 0.6875 2.328125l0 0.453125l-4.296875 0q0.03125 0.9375 0.546875 1.515625q0.53125 0.578125 1.34375 0.578125q0.5625 0 0.953125 -0.234375q0.40625 -0.234375 0.71875 -0.625l0.65625 0.515625q-0.796875 1.234375 -2.390625 1.234375zm-0.140625 -5.6875q-0.65625 0 -1.109375 0.484375q-0.4375 0.46875 -0.53125 1.328125l3.171875 0l0 -0.078125q-0.046875 -0.828125 -0.453125 -1.28125q-0.390625 -0.453125 -1.078125 -0.453125zm5.341797 -2.3125l0 1.53125l1.171875 0l0 0.84375l-1.171875 0l0 3.921875q0 0.390625 0.15625 0.578125q0.15625 0.1875 0.53125 0.1875q0.1875 0 0.515625 -0.0625l0 0.875q-0.421875 0.125 -0.828125 0.125q-0.71875 0 -1.09375 -0.4375q-0.375 -0.453125 -0.375 -1.265625l0 -3.921875l-1.15625 0l0 -0.84375l1.15625 0l0 -1.53125l1.09375 0zm3.6230469 7.875l-1.078125 0l0 -9.0l1.078125 0l0 9.0zm2.9121094 0l-1.078125 0l0 -6.34375l1.078125 0l0 6.34375zm-1.171875 -8.015625q0 -0.265625 0.15625 -0.453125q0.171875 -0.1875 0.484375 -0.1875q0.3125 0 0.46875 0.1875q0.171875 0.1875 0.171875 0.453125q0 0.25 -0.171875 0.4375q-0.15625 0.171875 -0.46875 0.171875q-0.3125 0 -0.484375 -0.171875q-0.15625 -0.1875 -0.15625 -0.4375zm3.4433594 8.015625l0 -5.5l-1.0 0l0 -0.84375l1.0 0l0 -0.640625q0 -1.03125 0.53125 -1.578125q0.546875 -0.5625 1.546875 -0.5625q0.375 0 0.75 0.09375l-0.0625 0.890625q-0.28125 -0.0625 -0.578125 -0.0625q-0.53125 0 -0.828125 0.3125q-0.28125 0.3125 -0.28125 0.875l0 0.671875l1.359375 0l0 0.84375l-1.359375 0l0 5.5l-1.078125 0zm5.6972656 -1.59375l1.484375 -4.75l1.15625 0l-2.546875 7.328125q-0.59375 1.578125 -1.875 1.578125l-0.21875 -0.015625l-0.390625 -0.078125l0 -0.875l0.28125 0.015625q0.5625 0 0.859375 -0.21875q0.3125 -0.21875 0.515625 -0.8125l0.234375 -0.65625l-2.265625 -6.265625l1.1875 0l1.578125 4.75z" fill-rule="nonzero"/><path fill="#000000" d="m593.8087 193.95668q-0.4375 0.625 -1.21875 0.9375q-0.78125 0.3125 -1.8125 0.3125q-1.03125 0 -1.84375 -0.484375q-0.8125 -0.5 -1.25 -1.40625q-0.4375 -0.90625 -0.453125 -2.09375l0 -0.734375q0 -1.9375 0.890625 -3.0q0.90625 -1.0625 2.53125 -1.0625q1.34375 0 2.15625 0.6875q0.8125 0.6875 1.0 1.9375l-1.125 0q-0.328125 -1.6875 -2.015625 -1.6875q-1.140625 0 -1.71875 0.796875q-0.578125 0.78125 -0.59375 2.296875l0 0.6875q0 1.4375 0.65625 2.296875q0.65625 0.84375 1.78125 0.84375q0.625 0 1.09375 -0.140625q0.484375 -0.140625 0.796875 -0.484375l0 -1.90625l-1.96875 0l0 -0.921875l3.09375 0l0 3.125zm2.8769531 1.125l-1.078125 0l0 -6.34375l1.078125 0l0 6.34375zm-1.171875 -8.015625q0 -0.265625 0.15625 -0.453125q0.171875 -0.1875 0.484375 -0.1875q0.3125 0 0.46875 0.1875q0.171875 0.1875 0.171875 0.453125q0 0.25 -0.171875 0.4375q-0.15625 0.171875 -0.46875 0.171875q-0.3125 0 -0.484375 -0.171875q-0.15625 -0.1875 -0.15625 -0.4375zm4.3808594 0.140625l0 1.53125l1.171875 0l0 0.84375l-1.171875 0l0 3.921875q0 0.390625 0.15625 0.578125q0.15625 0.1875 0.53125 0.1875q0.1875 0 0.515625 -0.0625l0 0.875q-0.421875 0.125 -0.828125 0.125q-0.71875 0 -1.09375 -0.4375q-0.375 -0.453125 -0.375 -1.265625l0 -3.921875l-1.15625 0l0 -0.84375l1.15625 0l0 -1.53125l1.09375 0zm9.169922 7.875l-1.125 0l0 -3.9375l-4.3125 0l0 3.9375l-1.125 0l0 -8.53125l1.125 0l0 3.671875l4.3125 0l0 -3.671875l1.125 0l0 8.53125zm5.7421875 -0.625q-0.625 0.75 -1.859375 0.75q-1.015625 0 -1.546875 -0.59375q-0.53125 -0.59375 -0.53125 -1.75l0 -4.125l1.078125 0l0 4.09375q0 1.453125 1.171875 1.453125q1.25 0 1.65625 -0.9375l0 -4.609375l1.09375 0l0 6.34375l-1.03125 0l-0.03125 -0.625zm8.068359 -2.46875q0 1.453125 -0.671875 2.34375q-0.65625 0.875 -1.78125 0.875q-1.203125 0 -1.859375 -0.859375l-0.0625 0.734375l-0.984375 0l0 -9.0l1.078125 0l0 3.359375q0.65625 -0.8125 1.8125 -0.8125q1.15625 0 1.8125 0.875q0.65625 0.859375 0.65625 2.390625l0 0.09375zm-1.078125 -0.125q0 -1.109375 -0.4375 -1.703125q-0.421875 -0.609375 -1.21875 -0.609375q-1.078125 0 -1.546875 0.984375l0 2.75q0.5 1.0 1.546875 1.0q0.78125 0 1.21875 -0.609375q0.4375 -0.609375 0.4375 -1.8125zm6.703125 -0.125l0 3.34375l-1.125 0l0 -8.53125l3.15625 0q1.390625 0 2.1875 0.71875q0.796875 0.703125 0.796875 1.890625q0 1.234375 -0.78125 1.90625q-0.765625 0.671875 -2.21875 0.671875l-2.015625 0zm0 -0.921875l2.03125 0q0.90625 0 1.375 -0.421875q0.484375 -0.421875 0.484375 -1.21875q0 -0.765625 -0.484375 -1.21875q-0.46875 -0.46875 -1.3125 -0.484375l-2.09375 0l0 3.34375zm10.130859 4.265625q-0.09375 -0.1875 -0.15625 -0.671875q-0.75 0.796875 -1.796875 0.796875q-0.9375 0 -1.546875 -0.53125q-0.59375 -0.53125 -0.59375 -1.359375q0 -0.984375 0.75 -1.53125q0.75 -0.546875 2.125 -0.546875l1.046875 0l0 -0.5q0 -0.5625 -0.34375 -0.890625q-0.328125 -0.34375 -1.0 -0.34375q-0.578125 0 -0.96875 0.296875q-0.390625 0.28125 -0.390625 0.703125l-1.09375 0q0 -0.484375 0.328125 -0.921875q0.34375 -0.4375 0.921875 -0.6875q0.578125 -0.265625 1.265625 -0.265625q1.109375 0 1.71875 0.546875q0.625 0.546875 0.65625 1.5l0 2.921875q0 0.875 0.21875 1.390625l0 0.09375l-1.140625 0zm-1.796875 -0.828125q0.515625 0 0.96875 -0.265625q0.453125 -0.265625 0.65625 -0.6875l0 -1.296875l-0.84375 0q-2.0 0 -2.0 1.171875q0 0.5 0.34375 0.796875q0.34375 0.28125 0.875 0.28125zm4.1523438 -2.390625q0 -1.484375 0.6875 -2.359375q0.6875 -0.875 1.8125 -0.875q1.15625 0 1.8125 0.8125l0.046875 -0.703125l1.0 0l0 6.1875q0 1.234375 -0.734375 1.9375q-0.734375 0.71875 -1.953125 0.71875q-0.6875 0 -1.34375 -0.296875q-0.65625 -0.296875 -1.0 -0.796875l0.5625 -0.65625q0.6875 0.859375 1.703125 0.859375q0.78125 0 1.21875 -0.453125q0.453125 -0.4375 0.453125 -1.25l0 -0.546875q-0.65625 0.765625 -1.78125 0.765625q-1.109375 0 -1.796875 -0.890625q-0.6875 -0.90625 -0.6875 -2.453125zm1.09375 0.125q0 1.0625 0.4375 1.6875q0.4375 0.609375 1.234375 0.609375q1.015625 0 1.5 -0.9375l0 -2.890625q-0.5 -0.90625 -1.5 -0.90625q-0.78125 0 -1.234375 0.609375q-0.4375 0.609375 -0.4375 1.828125zm8.529297 3.21875q-1.296875 0 -2.109375 -0.84375q-0.796875 -0.859375 -0.796875 -2.28125l0 -0.1875q0 -0.953125 0.359375 -1.6875q0.359375 -0.75 1.0 -1.15625q0.65625 -0.421875 1.40625 -0.421875q1.234375 0 1.921875 0.8125q0.6875 0.8125 0.6875 2.328125l0 0.453125l-4.296875 0q0.03125 0.9375 0.546875 1.515625q0.53125 0.578125 1.34375 0.578125q0.5625 0 0.953125 -0.234375q0.40625 -0.234375 0.71875 -0.625l0.65625 0.515625q-0.796875 1.234375 -2.390625 1.234375zm-0.140625 -5.6875q-0.65625 0 -1.109375 0.484375q-0.4375 0.46875 -0.53125 1.328125l3.171875 0l0 -0.078125q-0.046875 -0.828125 -0.453125 -1.28125q-0.390625 -0.453125 -1.078125 -0.453125zm7.560547 3.875q0 -0.4375 -0.34375 -0.671875q-0.328125 -0.25 -1.15625 -0.421875q-0.8125 -0.171875 -1.296875 -0.421875q-0.484375 -0.25 -0.71875 -0.578125q-0.21875 -0.34375 -0.21875 -0.8125q0 -0.78125 0.65625 -1.3125q0.65625 -0.546875 1.6875 -0.546875q1.078125 0 1.734375 0.5625q0.671875 0.546875 0.671875 1.40625l-1.078125 0q0 -0.4375 -0.390625 -0.75q-0.375 -0.328125 -0.9375 -0.328125q-0.59375 0 -0.9375 0.265625q-0.328125 0.25 -0.328125 0.65625q0 0.390625 0.3125 0.59375q0.3125 0.203125 1.125 0.390625q0.8125 0.171875 1.3125 0.421875q0.5 0.25 0.734375 0.609375q0.25 0.359375 0.25 0.859375q0 0.859375 -0.6875 1.375q-0.671875 0.515625 -1.75 0.515625q-0.765625 0 -1.359375 -0.265625q-0.578125 -0.28125 -0.90625 -0.765625q-0.328125 -0.484375 -0.328125 -1.046875l1.078125 0q0.03125 0.546875 0.4375 0.875q0.40625 0.3125 1.078125 0.3125q0.609375 0 0.984375 -0.25q0.375 -0.25 0.375 -0.671875zm8.095703 1.8125q-1.296875 0 -2.109375 -0.84375q-0.796875 -0.859375 -0.796875 -2.28125l0 -0.1875q0 -0.953125 0.359375 -1.6875q0.359375 -0.75 1.0 -1.15625q0.65625 -0.421875 1.40625 -0.421875q1.234375 0 1.921875 0.8125q0.6875 0.8125 0.6875 2.328125l0 0.453125l-4.296875 0q0.03125 0.9375 0.546875 1.515625q0.53125 0.578125 1.34375 0.578125q0.5625 0 0.953125 -0.234375q0.40625 -0.234375 0.71875 -0.625l0.65625 0.515625q-0.796875 1.234375 -2.390625 1.234375zm-0.140625 -5.6875q-0.65625 0 -1.109375 0.484375q-0.4375 0.46875 -0.53125 1.328125l3.171875 0l0 -0.078125q-0.046875 -0.828125 -0.453125 -1.28125q-0.390625 -0.453125 -1.078125 -0.453125zm5.341797 -2.3125l0 1.53125l1.171875 0l0 0.84375l-1.171875 0l0 3.921875q0 0.390625 0.15625 0.578125q0.15625 0.1875 0.53125 0.1875q0.1875 0 0.515625 -0.0625l0 0.875q-0.421875 0.125 -0.828125 0.125q-0.71875 0 -1.09375 -0.4375q-0.375 -0.453125 -0.375 -1.265625l0 -3.921875l-1.15625 0l0 -0.84375l1.15625 0l0 -1.53125l1.09375 0zm4.982422 7.109375q0.578125 0 1.015625 -0.34375q0.4375 -0.359375 0.484375 -0.890625l1.03125 0q-0.03125 0.546875 -0.390625 1.046875q-0.34375 0.484375 -0.921875 0.78125q-0.5625 0.296875 -1.21875 0.296875q-1.296875 0 -2.0625 -0.859375q-0.75 -0.875 -0.75 -2.375l0 -0.1875q0 -0.921875 0.328125 -1.640625q0.34375 -0.71875 0.96875 -1.109375q0.640625 -0.40625 1.515625 -0.40625q1.0625 0 1.765625 0.640625q0.71875 0.625 0.765625 1.65625l-1.03125 0q-0.046875 -0.625 -0.46875 -1.015625q-0.421875 -0.390625 -1.03125 -0.390625q-0.828125 0 -1.28125 0.59375q-0.453125 0.59375 -0.453125 1.71875l0 0.203125q0 1.09375 0.453125 1.6875q0.453125 0.59375 1.28125 0.59375z" fill-rule="nonzero"/><path fill="#000000" fill-opacity="0.0" d="m104.65092 41.942257l0 62.519688" fill-rule="evenodd"/><path stroke="#b7b7b7" stroke-width="3.0" stroke-linejoin="round" stroke-linecap="butt" d="m104.65092 41.942257l0 44.519688" fill-rule="evenodd"/><path fill="#b7b7b7" stroke="#b7b7b7" stroke-width="3.0" stroke-linecap="butt" d="m99.695724 86.461945l4.9551926 13.614288l4.9552 -13.614288z" fill-rule="evenodd"/><path fill="#000000" fill-opacity="0.0" d="m54.301838 15.362205l102.17323 0l0 34.3937l-102.17323 0z" fill-rule="evenodd"/><path fill="#000000" d="m70.3355 33.818455l0 3.34375l-1.953125 0l0 -9.46875l3.703125 0q1.0625 0 1.875 0.390625q0.8125 0.390625 1.25 1.109375q0.4375 0.71875 0.4375 1.625q0 1.390625 -0.953125 2.203125q-0.953125 0.796875 -2.640625 0.796875l-1.71875 0zm0 -1.578125l1.75 0q0.765625 0 1.171875 -0.359375q0.40625 -0.375 0.40625 -1.046875q0 -0.6875 -0.40625 -1.109375q-0.40625 -0.4375 -1.125 -0.453125l-1.796875 0l0 2.96875zm10.737534 4.203125q-0.6875 0.84375 -1.921875 0.84375q-1.140625 0 -1.734375 -0.640625q-0.59375 -0.65625 -0.609375 -1.90625l0 -4.625l1.890625 0l0 4.546875q0 1.109375 1.0 1.109375q0.953125 0 1.3125 -0.671875l0 -4.984375l1.890625 0l0 7.046875l-1.78125 0l-0.046875 -0.71875zm5.223648 0.71875l-1.890625 0l0 -10.0l1.890625 0l0 10.0zm3.533783 0l-1.890625 0l0 -10.0l1.890625 0l0 10.0zm8.509048 -3.46875l-1.5625 0l0 3.46875l-1.953125 0l0 -9.46875l3.515625 0q1.6875 0 2.59375 0.75q0.921875 0.734375 0.921875 2.109375q0 0.96875 -0.421875 1.625q-0.421875 0.640625 -1.28125 1.015625l2.046875 3.875l0 0.09375l-2.09375 0l-1.765625 -3.46875zm-1.5625 -1.578125l1.578125 0q0.734375 0 1.140625 -0.375q0.40625 -0.375 0.40625 -1.03125q0 -0.671875 -0.390625 -1.046875q-0.375 -0.390625 -1.171875 -0.390625l-1.5625 0l0 2.84375zm9.677673 5.171875q-1.546875 0 -2.53125 -0.9375q-0.96875 -0.953125 -0.96875 -2.53125l0 -0.1875q0 -1.0625 0.40625 -1.890625q0.40625 -0.84375 1.15625 -1.296875q0.765625 -0.453125 1.71875 -0.453125q1.453125 0 2.28125 0.921875q0.828125 0.90625 0.828125 2.578125l0 0.765625l-4.484375 0q0.09375 0.6875 0.546875 1.109375q0.46875 0.40625 1.171875 0.40625q1.078125 0 1.6875 -0.78125l0.921875 1.03125q-0.421875 0.59375 -1.140625 0.9375q-0.71875 0.328125 -1.59375 0.328125zm-0.21875 -5.78125q-0.5625 0 -0.90625 0.390625q-0.34375 0.375 -0.453125 1.078125l2.625 0l0 -0.15625q-0.015625 -0.625 -0.34375 -0.96875q-0.328125 -0.34375 -0.921875 -0.34375zm3.8760986 2.078125q0 -1.671875 0.734375 -2.625q0.75 -0.96875 2.046875 -0.96875q1.125 0 1.796875 0.859375l0.125 -0.734375l1.65625 0l0 9.75l-1.890625 0l0 -3.3125q-0.65625 0.734375 -1.703125 0.734375q-1.265625 0 -2.015625 -0.96875q-0.75 -0.984375 -0.75 -2.734375zm1.890625 0.125q0 1.015625 0.34375 1.546875q0.359375 0.515625 1.0 0.515625q0.875 0 1.234375 -0.6875l0 -2.90625q-0.359375 -0.671875 -1.21875 -0.671875q-0.640625 0 -1.0 0.53125q-0.359375 0.53125 -0.359375 1.671875zm10.15461 2.734375q-0.6875 0.84375 -1.921875 0.84375q-1.140625 0 -1.734375 -0.640625q-0.5937424 -0.65625 -0.6093674 -1.90625l0 -4.625l1.8906174 0l0 4.546875q0 1.109375 1.0 1.109375q0.953125 0 1.3125 -0.671875l0 -4.984375l1.890625 0l0 7.046875l-1.78125 0l-0.046875 -0.71875zm6.489273 0.84375q-1.546875 0 -2.53125 -0.9375q-0.96875 -0.953125 -0.96875 -2.53125l0 -0.1875q0 -1.0625 0.40625 -1.890625q0.40625 -0.84375 1.15625 -1.296875q0.765625 -0.453125 1.71875 -0.453125q1.453125 0 2.28125 0.921875q0.828125 0.90625 0.828125 2.578125l0 0.765625l-4.484375 0q0.09375 0.6875 0.546875 1.109375q0.46875 0.40625 1.171875 0.40625q1.078125 0 1.6875 -0.78125l0.921875 1.03125q-0.421875 0.59375 -1.140625 0.9375q-0.71875 0.328125 -1.59375 0.328125zm-0.21875 -5.78125q-0.5625 0 -0.90625 0.390625q-0.34375 0.375 -0.453125 1.078125l2.625 0l0 -0.15625q-0.015625 -0.625 -0.34375 -0.96875q-0.328125 -0.34375 -0.921875 -0.34375zm7.9854736 3.703125q0 -0.34375 -0.34375 -0.53125q-0.328125 -0.203125 -1.09375 -0.359375q-2.515625 -0.53125 -2.515625 -2.140625q0 -0.9375 0.78125 -1.5625q0.78125 -0.625 2.03125 -0.625q1.34375 0 2.140625 0.640625q0.8125 0.625 0.8125 1.625l-1.875 0q0 -0.390625 -0.265625 -0.65625q-0.265625 -0.265625 -0.8125 -0.265625q-0.46875 0 -0.734375 0.21875q-0.265625 0.203125 -0.265625 0.546875q0 0.3125 0.296875 0.5q0.296875 0.1875 1.0 0.328125q0.703125 0.140625 1.1875 0.3125q1.484375 0.546875 1.484375 1.890625q0 0.96875 -0.828125 1.5625q-0.8125 0.59375 -2.125 0.59375q-0.890625 0 -1.578125 -0.3125q-0.6875 -0.3125 -1.078125 -0.859375q-0.390625 -0.546875 -0.390625 -1.1875l1.78125 0q0.03125 0.5 0.375 0.765625q0.34375 0.265625 0.921875 0.265625q0.546875 0 0.8125 -0.203125q0.28125 -0.203125 0.28125 -0.546875zm5.2902985 -6.8125l0 1.71875l1.203125 0l0 1.390625l-1.203125 0l0 3.515625q0 0.390625 0.15625 0.5625q0.15625 0.15625 0.578125 0.15625q0.3125 0 0.546875 -0.046875l0 1.4375q-0.546875 0.15625 -1.140625 0.15625q-1.984375 0 -2.015625 -2.0l0 -3.78125l-1.03125 0l0 -1.390625l1.03125 0l0 -1.71875l1.875 0z" fill-rule="nonzero"/></g></svg>